<svg width="568" height="475" viewBox="0 0 568 475" fill="none" xmlns="http://www.w3.org/2000/svg">
<g clip-path="url(#clip0_1905_343)">
<path d="M252.578 114.083C266.154 125.185 290.993 132.655 310.763 125.015C326.517 118.938 334.173 109.193 340.706 93.4733C346.899 78.568 345.946 60.2675 339.039 47.6031C336.248 42.5441 330.26 34.3615 324.714 30.7625C319.405 27.3332 312.124 25.3979 305.727 23.191C299.194 20.9501 288.578 20.271 280.003 21.0859C275.648 21.4933 271.326 22.0705 267.788 23.5984C258.022 27.8425 246.998 35.38 241.655 43.359C239.001 47.3314 234.034 56.1592 233.217 61.4558C231.073 75.2067 233.489 89.8743 239.103 98.9058C241.996 103.557 248.767 110.925 252.578 114.049V114.083ZM252.986 72.4226C254.585 61.2521 261.084 51.6095 267.311 46.3468C267.924 45.8375 269.727 44.4115 271.088 46.3468C271.428 49.6063 268.298 51.7453 266.461 53.9183C262.514 58.6377 259.077 63.459 257.614 71.1663C257.001 74.3918 257.614 78.4322 255.504 81.6917C250.604 81.1824 252.544 75.3765 252.986 72.4226ZM281.636 100.603C282.011 101.656 282.453 103.863 281.636 104.814C276.736 105.051 273.334 100.603 268.162 99.7546C268.434 92.3189 278.234 99.5509 281.636 100.603ZM274.899 93.4394C277.009 91.6059 281.806 92.8622 280.786 96.8007C278.608 98.4304 274.253 97.1402 274.899 93.4394ZM284.597 111.095C284.529 111.57 284.699 111.842 285.005 111.944C283.236 115.95 273.164 113.472 269.421 111.536C265.78 109.635 263.5 105.73 260.982 104.372C260.676 102.539 261.731 102.029 262.684 101.418C266.563 101.35 268.536 106.07 271.973 107.734C276.294 109.839 280.479 107.971 284.631 111.095H284.597ZM264.351 69.0273C262.071 65.6999 267.107 58.0266 270.68 61.8632C269.523 65.2246 268.876 69.0612 264.351 69.0273ZM282.045 123.284C269.693 122.469 260.2 117.308 254.211 110.246C254.381 108.99 254.926 108.175 255.878 107.734C259.757 107.971 262.479 112.487 266.835 114.898C270.476 116.901 275.614 118.293 280.752 118.7C284.324 118.972 289.701 117.071 292.559 120.805C291.096 124.812 285.141 123.522 282.011 123.318L282.045 123.284ZM307.326 95.5105C306.952 90.5194 311.239 86.9544 311.954 81.2163C312.26 78.8396 311.443 76.463 312.362 73.6449C313.553 72.7961 314.097 72.8979 315.731 73.2374C317.874 80.741 314.54 96.1895 307.292 95.5444L307.326 95.5105ZM311.103 115.271C309.708 112.249 312.804 110.144 314.063 108.107C320.188 98.3286 325.87 83.0159 322.91 66.0394C323.523 66.0394 324.645 64.4776 325.02 65.632C329.341 68.484 328.354 77.7871 327.98 83.3214C327.538 90.0101 324.986 96.3254 322.093 102.233C319.405 107.7 316.956 115.916 311.137 115.271H311.103ZM338.086 65.632C341.114 69.4008 339.481 76.2932 338.086 82.0312C336.793 87.2939 335.704 93.677 333.867 97.1742C332.301 100.162 328.286 106.002 324.577 103.048C324.407 99.5509 328.048 98.3286 329.647 95.4765C333.356 88.7539 334.173 75.682 335.534 66.4469C336.419 66.2092 336.725 65.3943 338.052 65.598L338.086 65.632ZM324.169 36.6023C323.693 36.5344 323.42 36.7042 323.318 37.0098C319.882 35.9572 317.738 33.6145 315.322 31.5434C317.126 25.8732 326.313 31.8829 324.169 36.6023ZM315.322 34.0898C318.18 35.5838 321.277 39.4544 324.169 42.9176C327.095 46.4147 331.825 50.4551 329.239 53.8504C325.496 53.6467 323.761 49.5723 321.651 47.1277C318.963 43.9701 316.717 39.7939 312.804 37.8586C309.912 36.4665 305.455 37.587 303.107 34.4973C303.413 30.0494 312.056 32.3582 315.322 34.0898ZM304.366 45.464C305.761 44.9208 314.778 50.9304 314.063 54.6992C313.825 55.8875 312.77 56.7024 311.954 56.8043C309.98 57.008 311.069 55.4801 308.993 53.4429C307.564 52.0169 298.888 47.637 304.366 45.464ZM307.326 61.0144C304.434 60.0977 299.67 61.0823 298.888 58.0605C299.976 52.9336 312.464 56.3289 307.326 61.0144ZM280.343 58.9093C292.729 55.1406 304.502 64.5116 306.475 72.7961C310.252 88.652 295.825 101.554 279.493 92.998C275.512 90.8929 270.578 86.479 269.387 82.4726C266.222 72.0151 273.98 60.8447 280.343 58.9093ZM238.185 79.9601C239.512 68.9254 240.975 63.0176 245.33 55.9894C247.508 52.4923 248.223 49.6063 250.809 46.3128C257.171 38.1981 268.74 31.9848 276.532 27.8086C282.419 29.8457 275.273 33.5126 272.755 34.9726C266.086 38.8093 258.601 43.5627 254.211 49.2667C247.066 58.5359 241.962 72.5923 242.404 84.2042C242.472 86.2414 244.752 91.8436 240.703 92.1831C236.552 92.5566 237.742 83.593 238.185 79.994V79.9601Z" fill="#B9FF66"/>
<path d="M294.298 86.3094C296.816 85.0531 298.925 79.5867 298.109 75.3766C297.088 70.046 290.113 65.4284 283.784 67.3637C279.088 68.8237 276.332 73.8147 277.455 79.1453C278.476 84.1703 288.786 89.0595 294.298 86.3094ZM289.67 74.5277C291.269 82.6085 281.708 82.1332 281.232 77.0402C280.824 72.7282 286.676 70.5553 289.67 74.5277Z" fill="#E7F2FC"/>
<path d="M298.106 141.006C296.609 141.244 295.316 142.466 293.887 142.262C290.961 141.889 290.893 138.765 288.409 139.308C276.806 141.923 260.031 144.707 253.396 153.603C244.106 166.131 249.687 191.46 250.435 208.708C250.98 221.101 249.108 231.321 255.505 237.738C256.968 232.271 259.554 225.107 260.575 218.826C260.915 216.687 259.622 212.884 263.093 212.511C267.516 215.736 264.216 222.289 263.093 226.805C261.834 231.898 260.881 237.5 258.874 241.099C260.507 243.679 262.923 245.479 266.053 246.565C267.551 240.148 269.048 230.438 269.422 222.153C269.592 218.045 267.789 211.628 272.382 210.372C275.036 212.273 274.186 216.381 274.084 219.607C273.709 229.725 272.416 241.201 269.864 248.636C271.94 248.976 272.893 250.368 275.342 250.3C277.928 241.269 278.405 228.095 279.119 217.502C279.324 214.344 278.677 209.319 282.488 208.674C285.142 210.779 283.951 215.431 283.747 218.758C283.1 230.234 281.671 242.151 279.936 251.556C282.488 251.692 284.632 252.202 287.116 252.405C288.953 242.084 291.981 226.329 293.444 217.06C293.921 214.106 292.696 210.474 295.962 210.745C299.399 211.051 297.732 217.705 297.221 220.422C295.18 231.151 293.717 243.238 291.743 252.813C294.601 252.473 296.235 253.39 298.923 253.22C301.645 244.257 304.707 229.895 305.252 219.98C305.456 216.076 304.027 209.251 307.361 209.047C310.832 208.81 310.117 216.076 309.879 219.573C309.097 231.864 306.102 243.068 303.993 252.813C306.442 253.729 310.56 252.982 313.69 253.22C311.921 251.285 314.643 249.282 315.391 246.497C317.059 240.114 318.079 225.073 318.352 218.724C318.522 214.684 317.365 209.455 320.461 209.455C324.068 209.455 322.673 221.508 322.571 223.342C321.993 232.814 319.713 246.633 318.352 253.628H328.049C327.607 252.507 327.539 251.047 327.641 249.417C329.648 239.571 332.37 228.061 333.561 217.434C333.902 214.31 332.643 208.946 336.522 207.757C340.231 209.862 338.223 215.091 337.781 218.69C336.522 229.283 334.82 239.062 332.711 248.569C332.336 250.198 331.316 251.828 331.86 253.186C335.841 252.948 338.904 251.828 343.225 251.93C344.96 244.019 347.172 232.475 347.852 222.9C348.193 218.181 345.811 210.677 350.813 209.014C353.467 212.001 352.82 218.351 352.514 222.459C351.799 232.067 349.282 242.763 348.295 251.489C351.527 251.624 354.419 251.421 357.142 251.081C357.414 240.692 360.68 226.567 361.769 215.736C362.007 213.224 360.476 208.47 365.138 209.014C367.724 215.091 365.24 222.866 364.287 229.623C363.266 236.855 362.348 243.951 360.919 250.232H370.174C370.174 248.84 369.459 248.127 369.765 246.463C372.521 239.13 373.951 227.722 374.393 217.841C374.529 214.514 372.964 208.742 376.503 207.316C379.531 208.029 378.578 211.832 378.612 214.48C378.748 228.401 376.434 241.846 373.542 250.232H384.09C386.404 239.537 388.82 225.956 389.569 214.073C389.705 211.764 388.446 207.418 391.678 206.908C395.081 208.606 393.958 213.903 393.788 217.434C393.38 225.583 392.291 233.595 390.828 240.59C390.079 244.189 388.616 247.448 388.718 249.825C391.1 249.248 394.026 249.214 396.306 248.569C398.211 238.213 400.151 226.635 401.784 216.178C402.294 212.816 401.648 208.301 404.744 206.501C407.909 207.418 407.092 212.918 406.854 215.329C405.833 225.82 401.886 238.145 400.967 248.569C403.86 247.957 407.603 248.161 411.073 248.161C412.434 238.688 415.258 226.771 415.701 216.178C415.837 213.393 414.136 207.01 418.219 206.501C421.655 208.199 420.09 212.613 419.92 215.736C419.171 227.416 417.47 238.586 415.701 248.127C418.967 247.822 420.975 248.772 424.139 248.535C427.678 239.299 428.222 226.737 429.618 214.887C429.992 211.56 429.345 205.992 432.986 204.803C436.593 206.739 434.619 211.56 434.245 214.887C432.918 226.805 431.999 239.639 428.767 248.976C431.999 248.67 434.245 249.383 437.205 249.383C440.132 238.756 442.445 226.058 443.943 214.039C444.385 210.44 444.215 205.143 447.719 203.513C451.394 205.516 449.012 210.541 448.57 214.039C446.869 226.941 444.487 239.164 441.833 249.791H448.162C451.292 237.941 454.729 221.984 457.009 209.828C457.451 207.452 456.362 202.664 460.786 203.106C463.576 206.433 461.194 210.847 460.377 214.48C457.689 226.126 456.294 239.164 452.789 249.825C463.576 249.112 463.235 238.417 465.039 227.959C466.094 221.746 467.489 215.465 467.148 209.862C467.455 208.606 470.143 209.761 470.109 208.165C467.455 186.027 470.177 154.995 456.192 144.639C452.687 142.025 446.835 141.617 440.166 142.126C418.219 143.824 392.733 146.065 367.247 144.232C355.576 143.383 343.871 143.451 332.677 142.568C320.529 141.583 307.804 139.342 298.106 140.87V141.006ZM455.784 154.451C454.184 157.643 450.952 155.164 450.305 152.754C447.039 151.667 442.616 151.735 440.608 149.392C442.343 143.111 456.362 148.951 455.784 154.451ZM261.017 164.535C261.12 167.693 260.949 170.681 258.057 170.002C254.689 169.221 257.138 162.396 258.057 160.733C262.821 152.312 271.498 145.352 283.373 143.077C286.945 142.398 297.392 141.549 294.737 147.287C288.034 147.287 280.855 147.729 275.342 150.241C268.639 153.263 264.999 159.51 261.017 164.535ZM429.652 149.392C430.06 149.392 429.992 148.883 430.06 148.544C431.897 147.661 434.619 148.068 435.13 149.8C435.368 152.278 432.033 152.991 430.06 151.905C430.06 150.92 429.345 150.649 429.652 149.392ZM425.841 179.678C422.574 183.753 409.304 181.783 401.818 181.783C391.61 181.783 382.423 182.089 376.094 181.376C371.535 175.366 367.077 162.057 377.796 160.325C390.181 158.322 415.258 161.208 426.283 161.174C427.916 165.995 428.631 176.249 425.875 179.678H425.841ZM324.238 148.544C335.535 147.864 357.584 150.479 370.208 151.497C375.55 151.939 381.777 151.803 387.085 151.09C389.875 150.717 392.427 149.291 395.081 148.985C400.457 148.34 405.731 148.985 410.699 148.577C413.013 148.374 415.803 146.71 417.878 148.985C416.892 155.47 404.744 152.482 397.633 153.195C393.856 153.569 390.555 155.368 387.527 155.708C380.177 156.59 370.276 155.402 363.505 154.859C356.529 154.316 349.996 154.18 342.408 153.603C336.862 153.161 321.482 154.214 324.272 148.544H324.238ZM333.936 164.094C338.563 166.505 336.692 173.227 337.747 178.388C335.807 185.62 322.333 182.666 309.505 183.854C304.333 184.33 282.59 188.031 277.486 184.262C274.526 182.123 272.042 172.786 273.267 168.678C273.981 166.335 275.615 166.301 277.044 164.06C288.204 163.007 299.943 163.279 313.316 163.653C320.665 163.856 330.193 162.091 333.97 164.06L333.936 164.094ZM308.212 145.997C308.654 148.679 307.531 149.8 304.843 149.358C302.495 147.118 305.966 143.62 308.212 145.997Z" fill="#B9FF66"/>
<path d="M230.224 180.121C229.815 192.854 231.619 203.413 232.333 215.059H241.588C241.996 202.157 240.567 191.122 239.478 179.714C236.484 179.952 232.503 179.205 230.224 180.121Z" fill="#E7F2FC"/>
<path d="M468.848 235.227C470.345 233.325 471.196 226.399 470.107 224.701C470.107 228.334 468.201 232.307 468.848 235.227Z" fill="#E7F2FC"/>
<path d="M431.726 86.75C437.034 81.9627 435.197 68.9587 429.208 66.1407C415.632 63.2547 414.782 76.5642 419.103 84.645C422.539 86.9537 426.282 87.1235 431.76 86.75H431.726ZM424.139 72.4559C431.012 69.8076 431.182 79.6539 426.656 80.4688C422.233 81.2497 419.035 74.4252 424.139 72.4559Z" fill="#E7F2FC"/>
<path d="M388.717 286.968C398.142 306.186 403.314 329.613 411.48 350.053C407.363 328.085 402.565 306.797 398.414 284.863C395.012 285.407 392.221 286.527 388.717 286.968Z" fill="#E7F2FC"/>
<path d="M381.163 173.399C393.515 173.127 407.023 173.942 418.694 172.991C418.455 171.192 419 170.207 419.102 168.781H380.313C380.177 170.751 380.653 172.109 381.163 173.433V173.399Z" fill="#E7F2FC"/>
<path d="M394.639 257.533C374.427 259.944 350.303 258.45 331.418 262.151C331.282 267.074 331.588 271.522 332.677 275.189C355.1 276.275 380.212 281.096 399.266 276.038C397.157 270.435 396.306 263.577 394.639 257.533ZM381.164 270.571C369.425 271.895 351.289 271.929 341.966 268.466C341.898 267.447 341.898 266.429 342.374 265.954C351.051 264.629 361.94 268.126 373.985 267.21C382.219 266.599 389.569 264.324 395.047 266.361C394.775 272.099 386.506 269.96 381.13 270.571H381.164Z" fill="#E7F2FC"/>
<path d="M437.206 133.841C449.524 131.668 462.216 122.942 468.817 114.895C473.138 109.633 478.174 102.163 480.216 96.3912C483.006 88.4122 483.108 76.4269 482.325 67.3615C481.168 54.3576 474.295 43.6624 467.15 37.517C457.724 29.4022 444.08 23.2228 427.101 24.4791C426.828 24.4791 426.522 24.4791 426.25 24.4791C406.004 24.4791 392.496 31.0659 384.091 42.1345C378.988 48.8912 371.264 64.136 370.175 74.1181C369.324 82.0291 370.889 97.4776 372.693 103.555C375.755 113.877 387.902 126.168 396.715 130.48C408.522 136.252 424.106 136.15 437.172 133.841H437.206ZM434.246 130.038C431.456 130.955 422.031 133.569 422.439 129.19C422.677 126.847 424.719 127.798 427.917 127.085C432.307 126.1 437.24 122.331 441.834 122.467C443.263 122.501 444.556 121.992 444.794 124.131C445.067 126.711 438.125 128.748 434.246 130.038ZM450.681 114.895C445.407 117.917 439.112 121.041 431.694 121.618C427.101 121.992 414.307 123.248 414.001 119.92C413.626 115.88 428.666 117.408 432.545 116.967C442.753 115.88 453.165 107.697 457.01 104.778C457.996 104.031 459.63 103.216 460.787 105.185C459.936 109.599 454.798 112.519 450.681 114.861V114.895ZM427.917 106.883C437.615 106.17 444.454 101.586 451.531 98.0548C452.995 97.3418 454.73 98.9037 454.9 99.7525C455.445 102.299 442.991 108.343 440.983 108.988C438.602 109.803 434.484 110.617 431.286 111.093C425.91 111.874 417.607 113.028 416.11 108.58C419.036 105.423 423.868 107.222 427.917 106.883ZM419.921 98.0548C424.481 100.703 434.552 97.4777 437.615 100.567C436.594 106.543 415.464 105.253 419.921 98.0548ZM464.598 38.7393C466.843 37.0416 470.382 43.1531 471.335 45.4619C473.546 50.8265 476.745 63.6606 477.255 68.1764C477.732 72.4884 477.323 76.5967 475.146 76.5967C472.253 76.5967 472.628 66.7503 471.335 61.8611C470.042 56.8701 468.374 50.7246 467.116 47.567C466.333 45.5977 461.501 41.048 464.598 38.7393ZM450.681 35.7854C453.743 33.4426 459.051 40.5727 460.787 43.3568C465.346 50.5888 467.558 59.111 470.484 68.1764C471.607 71.6735 475.044 80.0598 471.743 80.8068C468.511 81.5538 467.762 74.8311 466.673 71.5716C463.475 61.8272 459.119 47.4991 454.458 42.1345C453.675 41.2178 447.55 38.196 450.647 35.8193L450.681 35.7854ZM445.611 43.3568C453.573 44.681 455.683 53.6445 459.119 61.4537C461.365 66.5806 464.393 72.3526 462.488 76.5967C458.405 77.6831 458.915 73.3372 458.269 71.1303C455.819 62.676 450.885 50.7586 443.944 46.3107C443.944 44.7489 444.624 43.9001 445.611 43.3568ZM442.651 55.5459C443.773 55.5459 445.067 55.3761 445.611 55.9533C445.339 61.929 450.681 66.0373 448.129 71.5377C444.964 72.047 444.08 70.2475 444.352 67.3275C442.515 65.0187 440.541 59.111 442.651 55.5459ZM408.08 70.2814C409.033 65.0187 414.273 59.3486 421.146 58.0924C424.753 57.4473 428.768 57.2775 431.694 58.0924C445.203 61.929 447.925 89.3629 435.063 94.6935C433.055 95.5084 424.855 96.7646 422.405 96.3572C420.295 96.0177 412.776 90.8229 411.449 88.7857C408.658 84.5077 407.093 75.5441 408.08 70.2814ZM403.861 58.0924C402.772 61.4877 402.908 66.1392 400.492 68.1764C394.538 68.0066 398.791 53.7125 403.861 58.0924ZM378.579 94.2861C372.897 93.4373 374.802 84.4398 375.211 79.1431C376.538 61.6574 384.364 43.3908 394.197 37.9244C395.15 37.7886 395.762 38.0262 395.865 38.7732C396.137 42.6099 392.326 44.8847 390.386 47.6009C384.364 56.0552 380.076 67.9387 379.43 82.097C379.226 86.2732 380.723 91.5699 378.579 94.2861ZM388.685 82.9119C384.602 81.2822 385.929 73.8125 386.575 68.6177C387.494 61.3518 390.829 50.0116 394.163 48.0084C395.694 47.0917 397.736 46.6842 398.791 48.8572C398.723 51.166 396.511 52.1846 395.422 54.3236C393.142 58.8393 391.203 65.6638 390.795 71.5716C390.556 75.0009 392.292 81.2142 388.685 82.9458V82.9119Z" fill="#B9FF66"/>
<path d="M480.654 214.209C482.355 207.282 482.764 199.813 482.355 190.645C482.219 187.692 480.178 177.234 484.465 177.608C487.799 177.879 486.438 187.012 486.574 189.797C486.983 198.692 486.949 208.946 485.316 216.28C487.629 216.348 488.82 217.57 491.202 217.536C491.678 208.199 494.298 197.3 494.979 187.658C495.251 184.093 493.346 178.49 496.68 176.725C500.389 177.709 499.743 182.87 499.641 185.994C499.232 197.096 495.83 208.403 495.83 218.792C497.361 220.049 499.402 220.863 501.716 221.305C502.601 213.496 503.52 206.535 504.676 197.742C505.221 193.633 505.085 174.823 508.487 174.62C512.026 174.382 510.801 181.24 510.597 185.145C509.882 198.692 506.922 210.168 506.378 222.595C508.794 222.561 511.073 224.496 512.707 223.851C513.966 211.662 515.225 197.708 515.225 183.889C515.225 180.154 513.795 174.756 517.743 173.363C521.043 174.857 519.852 179.713 519.852 183.04C519.852 198.285 518.151 211.832 517.334 225.108C519.818 225.311 521.519 226.262 524.071 226.364C525.773 214.956 528.835 201.035 529.55 188.099C529.822 183.108 528.257 175.74 532.068 172.515C533.02 171.428 535.436 173.975 534.586 174.62C533.871 193.973 531.421 211.56 528.257 228.469C530.366 228.605 531.591 229.623 533.327 230.133C539.928 200.084 534.381 162.77 530.366 134.216C509.916 142.297 490.488 151.362 474.291 163.653C478.544 177.709 476.401 194.754 478.51 209.931C478.68 211.051 478.51 214.005 480.62 214.141L480.654 214.209ZM521.962 144.809C522.166 146.405 521.86 147.491 521.111 148.17C519.104 148.51 518.321 147.559 517.743 146.507C517.402 144.028 520.703 143.247 521.962 144.809ZM484.873 161.65C492.053 158.39 500.151 153.06 506.378 148.612C507.943 148.612 508.794 149.291 509.338 150.309C507.228 155.64 500.457 158.017 495.421 160.835C490.454 163.619 484.703 168.474 478.544 166.709C477.728 162.634 482.764 162.6 484.873 161.65Z" fill="#E7F2FC"/>
<path d="M283.34 177.167C296.849 177.337 308.383 175.503 319.169 172.957C307.567 172.583 293.99 172.04 282.49 172.957C281.707 173.738 283 176.08 283.34 177.167Z" fill="#E7F2FC"/>
<path d="M335.596 284.455C332.16 311.583 330.731 342.99 331.819 373.208C335.426 343.024 341.687 315.488 344.885 284.863C341.415 285.134 338.761 284.523 335.63 284.455H335.596Z" fill="#E7F2FC"/>
<path d="M357.11 286.969C363.303 320.073 369.258 353.347 373.987 387.911C376.981 375.518 376.199 361.53 376.947 347.541C378.002 326.762 379.193 307.137 379.465 286.969C371.231 287.343 365.038 285.645 357.11 285.713V286.969Z" fill="#E7F2FC"/>
<path d="M566.233 207.893C568.75 206.976 567.832 197.469 567.934 191.901C568.002 187.793 568.138 184.397 564.123 186.842C564.395 192.241 560.006 207.621 566.233 207.893Z" fill="#191A23"/>
<path d="M375.239 23.6315C380.649 17.7237 386.025 9.57504 392.932 6.38348C395.314 5.29699 404.977 5.05932 404.297 1.76589C403.582 -1.86706 393.137 1.08684 390.789 2.17333C386.638 4.10864 381.874 9.0997 377.723 13.955C373.844 18.4707 366.801 22.6129 368.434 28.2491C371.53 28.2491 373.368 25.6008 375.171 23.6315H375.239Z" fill="#191A23"/>
<path d="M277.009 5.12751C277.996 0.747595 273.64 1.49456 271.088 1.76618C266.597 2.27547 258.125 3.32801 257.172 6.38376C262.14 10.4921 270.986 5.43309 276.975 5.12751H277.009Z" fill="#191A23"/>
<path d="M224.742 72.8639C224.98 87.2599 226.749 96.9365 233.589 106.104C243.796 119.753 256.488 128.716 274.046 134.285C253.358 137.476 241.108 149.088 239.475 171.293C233.316 172.21 228.723 169.697 224.708 172.142C219.604 175.3 221.611 190.273 222.19 197.81C223.006 208.641 223.074 217.944 225.558 222.63C229.505 224.599 237.434 222.562 241.993 223.886C244.749 260.827 282.654 262.694 322.942 262.185C323.146 265.546 322.669 268.228 322.942 271.013C323.418 275.8 326.31 279.467 326.718 282.794C327.297 287.208 325.425 294.101 325.017 300.45C322.533 338.715 322.499 373.245 322.499 413.207C322.499 419.251 321.648 428.35 327.569 427.501C331.074 427.026 331.414 420.507 333.047 414.871C334.578 409.642 335.565 404.277 336.416 399.728C342.405 367.744 344.786 333.927 351.592 304.252C357.92 341.125 364.964 381.801 370.987 419.115C371.973 425.192 372.007 432.628 376.873 432.56C382.828 432.458 382.249 420.371 382.351 414.463C383.1 376.64 386.503 342.415 387.83 307.614C395.485 326.797 399.671 346.116 407.225 366.929C410.967 377.251 415.901 388.014 419.882 400.577C421.243 404.855 423.353 411.136 425.361 418.232C426.619 422.782 427.538 434.428 433.799 432.968C439.345 431.677 435.466 417.18 435.058 414.871C431.281 394.193 426.96 376.674 422.4 358.916C417.671 340.378 414.064 320.923 410.593 302.113C409.368 295.493 406.85 288.227 406.782 282.76C406.782 280.757 407.905 276.717 407.633 274.34C406.952 268.704 403.414 263.95 403.856 257.092C412.362 256.277 421.652 257.092 430.839 257.499C440.332 257.941 450.71 260.114 458.23 257.907C461.292 257.024 466.328 253.221 468.778 250.335C474.869 243.205 479.768 235.328 479.326 223.003C485.383 224.667 491.439 227.247 498.313 229.319C508.35 232.374 519.987 233.189 528.664 237.297C531.386 238.588 534.21 242.085 537.919 240.659C543.159 238.656 544.282 217.197 544.657 211.222C546.12 188.915 542.649 169.562 541.288 150.65C540.607 141.347 539.689 125.728 533.292 124.574C528.664 123.725 520.022 128.75 516.415 130.448C499.402 138.529 485.791 144.878 471.738 154.419C468.88 145.761 464.116 139.038 456.563 135.065C478.407 122.639 494.502 100.671 490.691 65.2245C490.078 59.4525 488.139 52.662 485.655 47.5691C476.604 29.0648 454.487 13.82 425.803 15.5855C417.705 16.0948 407.667 17.0115 400.079 19.3543C390.245 22.3761 380.99 31.5773 375.206 40.405C369.353 49.3007 362.922 60.9465 361.731 72.796C361.187 78.0247 361.799 83.8986 362.14 88.7878C364.045 114.049 374.763 126.068 389.531 136.322C364.079 135.779 339.784 134.081 315.32 132.519C332.435 124.574 343.357 112.996 349.89 94.2542C362.038 59.3167 342.643 26.3485 317.429 18.5394C313.925 17.4529 312.427 16.9776 309.433 15.5855C307.8 14.8385 306.337 13.9218 304.806 13.4804C285.581 7.94612 265.029 14.499 254.208 21.4933C244.103 28.0122 238.352 32.0866 232.704 42.1027C229.676 47.5012 225.694 54.122 224.674 59.3507C223.891 63.3911 224.606 68.4501 224.674 72.796L224.742 72.8639ZM232.33 215.058C231.615 203.413 229.846 192.853 230.22 180.121C232.534 179.204 236.481 179.951 239.475 179.713C240.564 191.088 241.993 202.156 241.585 215.058H232.33ZM530.4 134.285C534.415 162.839 539.961 200.119 533.36 230.201C531.624 229.692 530.434 228.639 528.29 228.538C531.454 211.629 533.904 194.042 534.619 174.688C535.469 174.043 533.054 171.497 532.101 172.583C528.256 175.775 529.855 183.177 529.583 188.168C528.868 201.104 525.84 215.024 524.105 226.433C521.553 226.297 519.817 225.38 517.367 225.176C518.218 211.901 519.885 198.354 519.885 183.109C519.885 179.781 521.076 174.926 517.776 173.432C513.829 174.824 515.258 180.223 515.258 183.958C515.258 197.776 513.965 211.731 512.74 223.92C511.107 224.565 508.827 222.596 506.411 222.664C506.955 210.271 509.882 198.761 510.63 185.214C510.834 181.309 512.059 174.451 508.521 174.688C505.152 174.892 505.254 193.736 504.71 197.81C503.587 206.604 502.634 213.53 501.749 221.374C499.402 220.898 497.394 220.117 495.863 218.861C495.863 208.438 499.232 197.131 499.674 186.063C499.81 182.939 500.422 177.812 496.714 176.794C493.379 178.559 495.284 184.161 495.012 187.726C494.332 197.369 491.712 208.268 491.235 217.605C488.819 217.605 487.663 216.416 485.349 216.349C486.982 209.015 487.016 198.727 486.608 189.865C486.472 187.047 487.833 177.948 484.498 177.676C480.211 177.303 482.252 187.76 482.388 190.714C482.797 199.881 482.388 207.351 480.687 214.277C478.612 214.142 478.748 211.188 478.578 210.067C476.502 194.89 478.646 177.846 474.358 163.79C490.555 151.499 509.984 142.399 530.434 134.352L530.4 134.285ZM331.822 373.245C330.768 343.027 332.163 311.62 335.599 284.492C338.73 284.594 341.384 285.171 344.854 284.899C341.69 315.525 335.395 343.027 331.788 373.245H331.822ZM376.941 347.576C376.227 361.565 377.009 375.587 373.981 387.946C369.251 353.382 363.297 320.074 357.104 287.004V285.748C365.032 285.68 371.191 287.378 379.459 287.004C379.187 307.172 377.996 326.797 376.941 347.576ZM332.673 275.223C331.584 271.556 331.278 267.108 331.414 262.185C350.299 258.45 374.423 259.978 394.635 257.567C396.302 263.611 397.153 270.469 399.262 276.072C380.174 281.131 355.096 276.343 332.673 275.223ZM411.512 350.089C403.346 329.649 398.174 306.188 388.748 287.004C392.253 286.563 395.043 285.443 398.446 284.899C402.597 306.833 407.395 328.121 411.512 350.089ZM468.846 235.226C468.2 232.34 470.105 228.368 470.105 224.701C471.194 226.399 470.343 233.291 468.846 235.226ZM372.722 103.557C370.919 97.4458 369.319 81.9972 370.204 74.1202C371.293 64.138 379.017 48.8932 384.121 42.1366C392.491 31.068 406 24.4811 426.279 24.4811C426.551 24.4811 426.858 24.4811 427.13 24.4811C444.109 23.2249 457.788 29.4043 467.179 37.519C474.324 43.6984 481.198 54.3936 482.354 67.3636C483.137 76.429 483.035 88.4143 480.245 96.3932C478.237 102.199 473.201 109.635 468.846 114.898C462.245 122.944 449.553 131.636 437.236 133.843C424.17 136.152 408.552 136.22 396.778 130.482C387.966 126.17 375.818 113.879 372.756 103.557H372.722ZM332.673 142.671C343.868 143.588 355.573 143.52 367.244 144.335C392.729 146.202 418.215 143.927 440.162 142.23C446.797 141.72 452.684 142.162 456.188 144.742C470.173 155.098 467.451 186.097 470.105 208.268C470.105 209.83 467.451 208.709 467.145 209.965C467.485 215.568 466.09 221.849 465.035 228.062C463.232 238.554 463.572 249.215 452.786 249.928C456.29 239.267 457.685 226.229 460.374 214.583C461.224 210.95 463.606 206.536 460.782 203.209C456.358 202.801 457.447 207.589 457.005 209.931C454.691 222.121 451.289 238.044 448.158 249.894H441.829C444.483 239.267 446.865 227.044 448.566 214.142C449.009 210.678 451.391 205.653 447.716 203.616C444.177 205.212 444.381 210.543 443.939 214.142C442.442 226.161 440.094 238.859 437.202 249.487C434.241 249.487 432.03 248.773 428.763 249.079C431.996 239.742 432.914 226.942 434.241 214.99C434.616 211.629 436.589 206.842 432.982 204.906C429.342 206.095 429.988 211.663 429.614 214.99C428.219 226.84 427.674 239.403 424.136 248.638C420.971 248.841 418.964 247.891 415.697 248.23C417.5 238.69 419.168 227.519 419.916 215.839C420.12 212.682 421.652 208.302 418.215 206.604C414.098 207.113 415.799 213.497 415.697 216.281C415.221 226.84 412.431 238.757 411.069 248.264C407.599 248.264 403.856 248.094 400.964 248.672C401.882 238.282 405.829 225.923 406.85 215.432C407.088 213.021 407.905 207.487 404.741 206.604C401.644 208.404 402.325 212.919 401.78 216.281C400.147 226.772 398.208 238.316 396.302 248.672C394.022 249.351 391.096 249.351 388.714 249.928C388.612 247.517 390.075 244.258 390.824 240.693C392.287 233.698 393.376 225.686 393.784 217.537C393.954 214.006 395.077 208.743 391.675 207.012C388.442 207.521 389.701 211.833 389.565 214.176C388.816 226.093 386.4 239.674 384.087 250.335H373.539C376.431 241.949 378.745 228.504 378.608 214.583C378.608 211.935 379.527 208.132 376.499 207.419C372.96 208.845 374.525 214.617 374.389 217.944C373.947 227.825 372.484 239.233 369.762 246.567C369.455 248.264 370.17 248.977 370.17 250.335H360.915C362.378 244.054 363.263 236.958 364.283 229.726C365.236 222.969 367.686 215.194 365.134 209.117C360.472 208.573 362.004 213.327 361.765 215.839C360.677 226.67 357.41 240.795 357.138 251.184C354.382 251.558 351.49 251.727 348.291 251.592C349.278 242.866 351.796 232.171 352.51 222.562C352.817 218.42 353.463 212.071 350.809 209.117C345.841 210.78 348.189 218.284 347.849 223.003C347.168 232.578 344.922 244.122 343.221 252.033C338.9 251.931 335.803 253.052 331.856 253.289C331.312 251.931 332.333 250.301 332.707 248.672C334.783 239.199 336.518 229.42 337.777 218.793C338.185 215.194 340.227 209.931 336.518 207.86C332.639 209.049 333.898 214.413 333.558 217.537C332.367 228.13 329.645 239.674 327.637 249.52C327.535 251.15 327.637 252.61 328.045 253.731H318.348C319.709 246.736 321.989 232.884 322.567 223.445C322.669 221.611 324.064 209.558 320.458 209.558C317.361 209.558 318.518 214.753 318.348 218.827C318.076 225.176 317.055 240.183 315.388 246.601C314.639 249.385 311.917 251.388 313.686 253.323C310.556 253.086 306.439 253.832 303.989 252.916C306.098 243.171 309.093 231.967 309.875 219.676C310.08 216.213 310.828 208.913 307.357 209.151C304.023 209.388 305.452 216.213 305.248 220.083C304.703 229.998 301.641 244.36 298.919 253.323C296.231 253.493 294.598 252.576 291.739 252.916C293.713 243.341 295.142 231.254 297.218 220.525C297.728 217.809 299.395 211.12 295.959 210.848C292.692 210.577 293.917 214.21 293.441 217.163C291.978 226.433 288.949 242.187 287.112 252.508C284.628 252.305 282.484 251.795 279.932 251.66C281.634 242.255 283.097 230.337 283.743 218.861C283.913 215.534 285.104 210.848 282.484 208.777C278.673 209.422 279.32 214.447 279.116 217.605C278.401 228.232 277.891 241.406 275.339 250.403C272.889 250.471 271.936 249.045 269.861 248.74C272.413 241.304 273.706 229.828 274.08 219.71C274.216 216.45 275.067 212.342 272.379 210.475C267.785 211.731 269.622 218.148 269.418 222.256C269.044 230.541 267.547 240.217 266.05 246.668C262.953 245.582 260.537 243.782 258.87 241.202C260.878 237.603 261.83 232.001 263.089 226.908C264.212 222.392 267.513 215.805 263.089 212.614C259.619 212.987 260.912 216.79 260.571 218.929C259.585 225.244 256.999 232.374 255.501 237.841C249.139 231.424 251.01 221.204 250.432 208.811C249.683 191.563 244.069 166.234 253.392 153.706C260.027 144.776 276.802 142.026 288.405 139.411C290.889 138.834 290.957 141.992 293.883 142.365C295.312 142.535 296.605 141.347 298.102 141.109C307.8 139.547 320.526 141.822 332.673 142.807V142.671ZM233.18 61.4897C233.997 56.227 238.931 47.3653 241.619 43.3929C246.961 35.38 257.985 27.8425 267.751 23.6323C271.29 22.1044 275.645 21.5272 279.966 21.1198C288.541 20.3049 299.157 20.984 305.69 23.2249C312.087 25.4318 319.369 27.3671 324.677 30.7964C330.257 34.3954 336.246 42.544 339.002 47.637C345.909 60.3014 346.862 78.568 340.669 93.5072C334.17 109.227 326.48 118.972 310.726 125.049C290.957 132.689 266.152 125.219 252.541 114.117C248.73 110.993 241.925 103.591 239.067 98.9736C233.452 89.9761 231.003 75.3085 233.18 61.5237V61.4897Z" fill="#191A23"/>
<path d="M215.898 97.2425C217.259 92.2853 214.571 88.0413 214.197 82.9483C212.802 63.2557 216.749 41.5938 225.595 29.0991C226.888 27.2657 229.202 26.7224 229.372 24.0402C223.792 18.7096 217.089 34.3618 214.197 42.5445C210.114 54.2242 208.549 68.3826 209.569 82.5069C209.944 87.6678 210.522 96.7671 215.898 97.2425Z" fill="#191A23"/>
<path d="M240.774 92.2154C244.823 91.8419 242.543 86.2736 242.475 84.2365C242.033 72.6246 247.137 58.5681 254.282 49.299C258.672 43.5949 266.157 38.8415 272.826 35.0049C275.344 33.5449 282.523 29.878 276.603 27.8408C268.811 32.017 257.242 38.2304 250.88 46.3451C248.294 49.6385 247.579 52.5245 245.402 56.0217C241.046 63.0499 239.583 68.9577 238.256 79.9924C237.814 83.5914 236.623 92.5549 240.774 92.1814V92.2154Z" fill="#191A23"/>
<path d="M324.237 36.6699C326.381 31.9504 317.194 25.9747 315.391 31.6109C317.806 33.682 319.95 36.0248 323.387 37.0773C323.489 36.7378 323.727 36.602 324.237 36.6699Z" fill="#191A23"/>
<path d="M503.421 92.2175C502.979 94.5603 500.733 96.6314 503.013 98.9402C508.457 99.1439 508.219 91.0292 508.491 86.3097C508.797 80.6056 508.899 73.2379 508.491 67.8054C507.504 54.8694 502.775 33.8866 492.907 30.3555C489.301 33.3773 495.357 36.5688 497.126 40.032C502.707 50.9309 506.347 76.9048 503.455 92.1836L503.421 92.2175Z" fill="#191A23"/>
<path d="M312.844 37.9245C316.791 39.8258 319.002 44.036 321.69 47.1936C323.8 49.6382 325.535 53.7125 329.278 53.9162C331.864 50.521 327.135 46.4806 324.208 42.9834C321.316 39.5202 318.22 35.6496 315.362 34.1557C312.095 32.4241 303.453 30.1153 303.146 34.5631C305.46 37.6528 309.952 36.5324 312.844 37.9245Z" fill="#191A23"/>
<path d="M454.524 42.1355C459.185 47.534 463.54 61.8621 466.739 71.5726C467.828 74.866 468.576 81.5547 471.809 80.8078C475.109 80.0608 471.672 71.6744 470.55 68.1773C467.623 59.1459 465.412 50.5897 460.852 43.3578C459.083 40.5737 453.809 33.4436 450.747 35.7863C447.65 38.163 453.775 41.1848 454.558 42.1015L454.524 42.1355Z" fill="#191A23"/>
<path d="M379.467 82.0975C380.114 67.9391 384.401 56.0557 390.424 47.6014C392.363 44.8852 396.174 42.6103 395.902 38.7737C395.8 38.0267 395.187 37.823 394.235 37.9248C384.401 43.3913 376.609 61.6579 375.248 79.1436C374.84 84.4402 372.934 93.4377 378.617 94.2865C380.76 91.5703 379.263 86.2737 379.467 82.0975Z" fill="#191A23"/>
<path d="M471.369 61.8962C472.628 66.7515 472.253 76.6317 475.179 76.6317C477.357 76.6317 477.765 72.5234 477.289 68.2114C476.779 63.6957 473.58 50.8615 471.369 45.497C470.416 43.1882 466.877 37.0767 464.632 38.7743C461.569 41.0831 466.401 45.6328 467.149 47.6021C468.374 50.7597 470.042 56.9051 471.369 61.8962Z" fill="#191A23"/>
<path d="M204.5 61.4883C207.971 56.8028 204.977 45.6663 207.869 40.4375C199.669 35.786 201.336 55.5126 202.391 61.4883H204.5Z" fill="#191A23"/>
<path d="M458.306 71.1679C458.953 73.3749 458.443 77.7208 462.526 76.6343C464.431 72.3902 461.403 66.5843 459.157 61.4914C455.721 53.6822 453.611 44.7187 445.649 43.3945C444.628 43.9378 443.948 44.7526 443.982 46.3484C450.957 50.7962 455.857 62.7137 458.306 71.1679Z" fill="#191A23"/>
<path d="M309.064 53.5116C311.139 55.5487 310.051 57.0766 312.024 56.8729C312.807 56.771 313.895 55.9562 314.134 54.7678C314.848 50.9991 305.831 44.9555 304.436 45.5327C298.958 47.7056 307.635 52.0855 309.064 53.5116Z" fill="#191A23"/>
<path d="M257.613 71.1647C259.077 63.4574 262.513 58.6361 266.46 53.9167C268.297 51.7437 271.428 49.6047 271.088 46.3452C269.727 44.4099 267.923 45.8359 267.311 46.3452C261.084 51.6079 254.551 61.2505 252.986 72.421C252.578 75.3749 250.604 81.1808 255.504 81.6901C257.613 78.4306 257.001 74.3903 257.613 71.1647Z" fill="#191A23"/>
<path d="M395.486 54.326C396.575 52.1869 398.787 51.1684 398.855 48.8596C397.8 46.6866 395.724 47.094 394.227 48.0107C390.893 50.014 387.558 61.3542 386.64 68.6201C385.993 73.8149 384.666 81.2845 388.749 82.9142C392.356 81.2166 390.621 74.9693 390.859 71.5401C391.301 65.6323 393.207 58.8077 395.486 54.292V54.326Z" fill="#191A23"/>
<path d="M513.932 83.7948C518.015 83.1158 517.335 74.7294 516.892 67.803C516.45 60.9106 515.293 48.7555 511.006 53.5089C510.223 57.2097 511.993 61.8273 512.265 66.9542C512.605 72.828 510.734 80.094 513.966 83.7948H513.932Z" fill="#191A23"/>
<path d="M307.365 61.081C312.537 56.3955 300.016 53.0002 298.927 58.1271C299.675 61.1489 304.473 60.1643 307.365 61.081Z" fill="#191A23"/>
<path d="M448.19 71.5737C450.742 66.0733 445.366 61.965 445.672 55.9893C445.127 55.4121 443.834 55.5819 442.712 55.5819C440.568 59.1469 442.541 65.0547 444.413 67.3635C444.175 70.2835 445.025 72.0829 448.19 71.5737Z" fill="#191A23"/>
<path d="M400.556 68.2137C402.972 66.1425 402.836 61.525 403.925 58.1297C398.821 53.7498 394.602 68.0439 400.556 68.2137Z" fill="#191A23"/>
<path d="M422.467 96.3923C424.883 96.7658 433.117 95.5435 435.125 94.7286C447.986 89.398 445.264 61.9641 431.756 58.1275C428.83 57.3126 424.815 57.4823 421.208 58.1275C414.335 59.3837 409.095 65.0538 408.142 70.3165C407.156 75.5792 408.721 84.5427 411.511 88.8208C412.838 90.858 420.357 96.0528 422.467 96.3923ZM429.204 66.1064C435.227 68.9244 437.064 81.9284 431.722 86.7157C426.244 87.0892 422.501 86.9194 419.064 84.6107C414.743 76.5299 415.628 63.2204 429.17 66.1064H429.204Z" fill="#191A23"/>
<path d="M269.418 82.5389C270.643 86.5454 275.543 90.9592 279.524 93.0643C295.856 101.654 310.283 88.7184 306.506 72.8624C304.532 64.5779 292.76 55.2069 280.374 58.9757C274.012 60.911 266.254 72.0815 269.418 82.5389ZM283.743 67.396C290.072 65.4267 297.047 70.0443 298.068 75.4088C298.884 79.619 296.809 85.0854 294.257 86.3417C288.745 89.0918 278.435 84.2026 277.414 79.1776C276.291 73.847 279.047 68.856 283.743 67.396Z" fill="#191A23"/>
<path d="M524.075 71.1656C529.485 70.6903 526.525 60.8779 524.925 58.5352C518.631 58.8068 523.701 67.3968 523.224 70.7242C523.564 70.8261 524.075 70.7242 524.075 71.1317V71.1656Z" fill="#191A23"/>
<path d="M264.385 69.062C268.911 69.096 269.557 65.2593 270.714 61.898C267.141 58.0613 262.106 65.7007 264.385 69.062Z" fill="#191A23"/>
<path d="M325.088 65.7002C324.714 64.5798 323.625 66.1416 322.978 66.1076C325.939 83.084 320.256 98.3968 314.132 108.175C312.873 110.178 309.811 112.317 311.172 115.339C317.024 115.95 319.44 107.768 322.128 102.301C325.054 96.3935 327.572 90.0783 328.014 83.3896C328.389 77.8893 329.409 68.5522 325.054 65.7002H325.088Z" fill="#191A23"/>
<path d="M324.643 103.149C328.351 106.069 332.366 100.229 333.932 97.2747C335.769 93.7776 336.858 87.3945 338.151 82.1318C339.546 76.3938 341.179 69.4674 338.151 65.7326C336.824 65.5289 336.518 66.3437 335.633 66.5814C334.272 75.8166 333.421 88.8884 329.746 95.6111C328.181 98.4631 324.506 99.6854 324.677 103.183L324.643 103.149Z" fill="#191A23"/>
<path d="M426.693 80.4352C431.184 79.6543 431.014 69.774 424.175 72.4224C419.105 74.3916 422.269 81.1822 426.693 80.4352Z" fill="#191A23"/>
<path d="M289.666 74.529C286.672 70.5565 280.854 72.7295 281.228 77.0415C281.705 82.1344 291.266 82.6098 289.666 74.529Z" fill="#191A23"/>
<path d="M315.8 73.27C314.167 72.9305 313.623 72.8286 312.432 73.6774C311.513 76.4955 312.296 78.8722 312.024 81.2489C311.309 87.0209 307.022 90.552 307.396 95.543C314.644 96.1881 317.978 80.7396 315.835 73.236L315.8 73.27Z" fill="#191A23"/>
<path d="M280.824 96.8338C281.845 92.8953 277.013 91.639 274.938 93.4725C274.325 97.1733 278.647 98.4635 280.824 96.8338Z" fill="#191A23"/>
<path d="M268.164 99.7864C273.37 100.601 276.739 105.049 281.638 104.845C282.455 103.895 282.012 101.688 281.638 100.635C278.236 99.5827 268.402 92.3507 268.164 99.7864Z" fill="#191A23"/>
<path d="M437.646 100.605C434.584 97.5156 424.512 100.707 419.953 98.0928C415.495 105.325 436.659 106.615 437.646 100.605Z" fill="#191A23"/>
<path d="M431.317 111.13C434.515 110.655 438.633 109.84 441.014 109.025C443.022 108.346 455.475 102.303 454.931 99.7901C454.761 98.9413 453.025 97.3795 451.562 98.0925C444.519 101.624 437.646 106.207 427.948 106.92C423.899 107.226 419.068 105.46 416.142 108.618C417.639 113.1 425.941 111.911 431.317 111.13Z" fill="#191A23"/>
<path d="M262.686 101.451C261.768 102.062 260.713 102.571 260.985 104.405C263.469 105.729 265.783 109.634 269.423 111.569C273.166 113.538 283.238 115.983 285.007 111.976C284.667 111.874 284.531 111.603 284.599 111.127C280.482 108.004 276.263 109.871 271.941 107.766C268.539 106.102 266.531 101.383 262.652 101.451H262.686Z" fill="#191A23"/>
<path d="M457.043 104.813C453.198 107.733 442.786 115.916 432.578 117.002C428.699 117.409 413.66 115.916 414.034 119.956C414.34 123.283 427.134 121.993 431.728 121.654C439.111 121.042 445.44 117.953 450.714 114.931C454.831 112.588 459.969 109.668 460.819 105.254C459.663 103.285 458.029 104.066 457.043 104.847V104.813Z" fill="#191A23"/>
<path d="M280.821 118.701C275.683 118.294 270.545 116.936 266.905 114.898C262.549 112.488 259.793 107.972 255.948 107.734C254.996 108.176 254.417 109.025 254.281 110.247C260.27 117.309 269.729 122.47 282.114 123.285C285.245 123.488 291.199 124.779 292.662 120.772C289.838 117.037 284.428 118.939 280.855 118.667L280.821 118.701Z" fill="#191A23"/>
<path d="M441.864 122.505C437.304 122.369 432.337 126.138 427.947 127.122C424.749 127.835 422.707 126.884 422.469 129.227C422.027 133.607 431.486 130.993 434.276 130.076C438.155 128.786 445.096 126.749 444.824 124.168C444.586 121.995 443.293 122.539 441.864 122.505Z" fill="#191A23"/>
<path d="M241.18 144.367C242.847 142.534 244.072 140.259 245.399 138.052C243.086 133.299 237.574 138.493 238.254 143.111C239.275 143.518 239.377 144.809 241.214 144.367H241.18Z" fill="#191A23"/>
<path d="M294.735 147.322C297.389 141.584 286.909 142.433 283.37 143.112C271.495 145.387 262.853 152.347 258.055 160.767C257.136 162.397 254.686 169.222 258.055 170.037C260.947 170.716 261.117 167.728 261.015 164.57C264.996 159.545 268.637 153.298 275.34 150.276C280.852 147.797 288.032 147.356 294.735 147.322Z" fill="#191A23"/>
<path d="M521.115 148.136C521.83 147.457 522.17 146.371 521.966 144.775C520.741 143.179 517.407 143.96 517.747 146.473C518.359 147.559 519.108 148.476 521.115 148.136Z" fill="#191A23"/>
<path d="M304.842 149.426C307.53 149.868 308.653 148.747 308.211 146.065C305.965 143.722 302.494 147.186 304.842 149.426Z" fill="#191A23"/>
<path d="M455.783 154.453C456.361 148.953 442.343 143.113 440.607 149.394C442.615 151.737 447.038 151.669 450.305 152.756C450.951 155.166 454.184 157.645 455.783 154.453Z" fill="#191A23"/>
<path d="M342.372 153.604C349.959 154.181 356.458 154.317 363.468 154.86C370.239 155.37 380.175 156.592 387.49 155.709C390.519 155.336 393.819 153.57 397.596 153.197C404.708 152.484 416.821 155.472 417.842 148.987C415.766 146.712 412.976 148.375 410.662 148.579C405.728 148.987 400.42 148.342 395.044 148.987C392.39 149.292 389.838 150.718 387.048 151.092C381.774 151.805 375.513 151.941 370.171 151.499C357.581 150.481 335.498 147.866 324.202 148.545C321.411 154.215 336.791 153.163 342.337 153.604H342.372Z" fill="#191A23"/>
<path d="M435.13 149.833C434.654 148.101 431.932 147.694 430.06 148.577C429.958 148.916 430.06 149.392 429.652 149.425C429.346 150.716 430.094 150.953 430.06 151.938C432.034 153.024 435.368 152.311 435.13 149.833Z" fill="#191A23"/>
<path d="M495.394 160.766C500.43 157.948 507.201 155.571 509.311 150.241C508.766 149.222 507.95 148.509 506.35 148.543C500.124 152.991 492.026 158.322 484.846 161.581C482.737 162.532 477.701 162.566 478.517 166.64C484.676 168.406 490.426 163.516 495.394 160.766Z" fill="#191A23"/>
<path d="M551.06 224.702C551.06 224.702 549.665 231.73 553.169 231.425C555.551 231.221 556.674 219.032 556.946 215.433C557.967 202.463 557.15 178.9 553.986 166.643C552.829 162.093 552.557 153.503 548.508 154.454C547.895 154.691 547.487 155.099 547.249 155.71C548.406 163.96 551.774 173.026 552.285 183.483C553.101 199.203 552.013 212.547 551.026 224.702H551.06Z" fill="#191A23"/>
<path d="M377.763 160.36C367.045 162.091 371.502 175.401 376.062 181.41C382.356 182.123 391.578 181.818 401.785 181.818C409.305 181.818 422.541 183.787 425.808 179.713C428.564 176.284 427.849 166.03 426.216 161.208C415.192 161.242 390.148 158.356 377.729 160.36H377.763ZM418.662 172.99C406.991 173.975 393.517 173.126 381.131 173.398C380.621 172.073 380.145 170.715 380.281 168.746H419.071C418.935 170.172 418.39 171.157 418.662 172.956V172.99Z" fill="#191A23"/>
<path d="M245.807 268.872C249.414 271.249 259.825 275.866 263.092 270.536C261.357 267.344 257.818 268.532 255.504 268.023C246.964 266.122 240.771 258.211 238.219 250.334C237.198 247.21 237.062 241.642 233.149 244.867C233.83 254.816 239.036 264.424 245.807 268.838V268.872Z" fill="#191A23"/>
<path d="M469.261 262.998C473.718 261.062 478.243 256.445 478.55 251.624C473.616 249.654 472.051 256.683 467.185 258.788C462.388 260.859 455.072 258.482 452.86 262.998C457.114 266.088 464.939 264.865 469.295 262.998H469.261Z" fill="#191A23"/>
<path d="M236.957 271.421C237.569 270.912 238.148 270.368 238.624 269.723C237.501 267.958 233.52 260.556 231.445 260.488C225.422 260.25 232.397 271.794 236.923 271.421H236.957Z" fill="#191A23"/>
<path d="M373.982 267.211C361.937 268.127 351.049 264.63 342.372 265.954C341.896 266.43 341.896 267.448 341.964 268.467C351.287 271.93 369.423 271.896 381.161 270.572C386.537 269.961 394.806 272.1 395.078 266.362C389.6 264.291 382.25 266.565 374.016 267.211H373.982Z" fill="#191A23"/>
<path d="M309.472 399.287C312.806 400 313.419 391.172 313.691 387.505C314.474 376.742 313.555 361.056 312.432 352.602C312.092 350.055 312.568 346.083 309.914 345.879H309.506C308.893 346.117 308.485 346.524 308.247 347.135C306.75 350.293 308.723 355.454 309.097 360.614C309.778 369.782 309.642 381.835 309.097 388.795C308.927 391.036 305.967 398.574 309.506 399.321L309.472 399.287Z" fill="#191A23"/>
<path d="M435.948 365.231C434.996 361.53 435.336 355.351 431.729 355.962C431.117 356.336 430.402 356.607 430.47 357.66C434.383 380.374 444.251 402.477 455.343 419.08C456.874 421.355 458.201 425.396 461.672 425.396C464.462 422.51 460.889 419.386 459.562 417.417C454.288 409.438 450.613 402.172 446.496 392.597C443.026 384.55 438.5 375.179 435.948 365.265V365.231Z" fill="#191A23"/>
<path d="M302.322 382.038C306.78 381.392 304.194 372.633 303.581 369.407C297.355 368.355 299.634 379.966 301.88 381.596C302.118 381.596 302.39 381.664 302.288 382.004L302.322 382.038Z" fill="#191A23"/>
<path d="M277.007 164.127C275.544 166.402 273.911 166.402 273.23 168.744C272.005 172.853 274.489 182.156 277.449 184.329C282.587 188.064 304.296 184.397 309.468 183.921C322.296 182.733 335.77 185.687 337.71 178.455C336.655 173.26 338.526 166.571 333.899 164.161C330.122 162.191 320.595 163.957 313.245 163.753C299.873 163.38 288.133 163.142 276.973 164.161L277.007 164.127ZM319.165 172.955C308.379 175.501 296.844 177.334 283.336 177.165C282.995 176.078 281.737 173.735 282.485 172.955C293.986 172.038 307.528 172.581 319.165 172.955Z" fill="#191A23"/>
<path d="M131.273 312.336C137.772 316.953 143.761 324.457 150.396 328.328C153.356 318.685 140.971 313.694 134.846 306.326C131.239 307.854 132.634 310.367 131.307 312.336H131.273Z" fill="#E7F2FC"/>
<path d="M206.509 243.24C199.874 237.265 191.572 229.218 184.869 222.835C182.862 220.933 178.302 218.183 181.16 215.161C184.325 214.788 186.502 218.115 188.714 220.22C195.893 227.113 203.447 234.956 210.694 240.388C214.063 237.468 218.656 236.789 221.038 233.869C211.307 226.06 201.542 218.251 192.116 208.744C184.086 212.717 176.329 215.161 168.026 220.56C177.315 232.375 187.421 239.879 197.118 249.623C200.249 247.484 203.379 245.345 206.509 243.206V243.24Z" fill="#E7F2FC"/>
<path d="M139.138 304.423C143.357 307.819 147.338 312.47 151.659 315.254C152.442 310.195 144.65 307.445 141.588 302.76C140.771 303.303 139.954 303.88 139.172 304.423H139.138Z" fill="#E7F2FC"/>
<path d="M131.238 328.667C138.418 337.155 145.699 345.168 153.355 351.279C152.3 349.683 152.572 348.291 151.79 346.729C147.809 344.013 144.951 341.297 140.323 336.713C138.145 334.574 129.027 327.512 131.647 324.796C134.028 322.351 139.132 329.108 141.072 331.111C144.746 334.914 146.89 337.8 150.156 339.192C151.075 332.537 144.678 330.398 139.37 325.645C135.559 322.215 132.463 318.854 129.333 316.172C127.427 319.941 128.04 324.185 127.938 328.327C129.231 327.41 130.286 327.75 131.204 328.633L131.238 328.667Z" fill="#E7F2FC"/>
<path d="M254.006 327.543C256.013 331.618 257.919 336.473 261.015 338.544C265.336 341.43 268.195 337.152 273.366 334.198C274.761 329.988 275.102 324.454 271.359 320.787C266.051 315.66 255.061 319.938 254.006 327.51V327.543Z" fill="#E7F2FC"/>
<path d="M234.176 228.438C225.126 219.644 216.007 211.257 206.65 203.89C203.315 204.365 199.845 205.689 196.374 206.81C206.071 215.875 215.905 224.363 225.908 232.037C228.8 229.999 231.488 229.218 234.176 228.438Z" fill="#E7F2FC"/>
<path d="M141.481 346.626C136.649 341.634 132.43 336.542 127.769 332.535C129.878 338.613 135.731 343.909 140.698 349.206C145.802 354.638 151.28 359.867 155.942 364.79C156.112 364.994 156.282 365.164 156.52 364.926C155.431 357.389 147.503 352.907 141.481 346.66V346.626Z" fill="#E7F2FC"/>
<path d="M145.426 300.143C148.012 302.553 150.359 306.22 153.218 307.069C153.15 305.847 153.966 304.794 154.477 303.674C152.197 302.961 150.359 299.769 148.216 298.275C147.297 298.92 146.344 299.532 145.426 300.177V300.143Z" fill="#E7F2FC"/>
<path d="M24.8052 276.888C28.0377 286.055 28.9223 300.247 38.5856 306.732C33.5158 296.818 28.0036 286.768 25.6218 277.363C25.3156 276.854 24.6351 276.073 24.8052 276.921V276.888Z" fill="#E7F2FC"/>
<path d="M23.8203 261.234C29.9789 276.819 35.4911 292.301 44.3378 308.395C44.9502 309.413 43.8614 310.126 44.1336 311.077C46.8556 312.096 49.5096 313.691 52.4699 313.556C48.3868 299.363 38.6895 284.119 37.8389 270.537C32.8711 269.01 28.3457 265.139 23.8203 261.234Z" fill="#E7F2FC"/>
<path d="M230.46 294.643C236.346 290.603 237.741 280.111 232.944 275.12C228.044 270.027 215.148 274.136 211.031 281.911C211.712 286.562 215.761 294.338 220.32 296.986C223.859 295.458 227.227 296.918 230.46 294.643Z" fill="#D9D9D9"/>
<path d="M152.612 295.731C153.871 297.089 154.926 299.533 156.525 299.194C156.525 296.58 159.247 294.474 159.145 291.826C156.968 293.15 154.654 295.289 152.646 295.731H152.612Z" fill="#E7F2FC"/>
<path d="M122.33 284.322C125.903 280.588 134.477 296.206 137.54 295.357C139.989 293.693 142.405 292.03 144.855 290.366C140.023 286.631 134.443 279.196 129.611 274.782C127.434 272.779 122.806 270.741 126.141 267.482C130.598 268.331 134.103 273.118 137.71 276.921C141.453 280.893 145.468 284.696 148.938 288.125C152.001 286.835 155.335 284.187 158.568 282.048C155.029 278.958 150.674 275.563 146.284 271.556C142.746 268.331 135.464 263.951 137.71 259.062C143.052 259.876 145.876 265.92 149.993 269.553C154.076 273.152 159.146 275.631 162.379 279.433C165.577 277.328 167.755 275.019 168.844 272.473C164.829 269.926 160.439 266.395 155.982 261.88C153.566 259.435 143.29 249.691 147.169 247.518C149.279 246.295 151.626 250.064 153.294 251.999C159.691 259.367 166.462 264.562 171.021 270.47C174.866 267.652 178.881 266.361 181.229 263C173.811 255.259 165.271 249.249 157.479 240.965C155.403 238.758 149.891 234.106 152.817 231.899C155.029 230.236 158.806 235.464 160.847 237.637C168.946 246.295 177.725 252.271 183.883 260.114C187.796 257.636 189.157 254.648 193.274 252.203C183.815 242.255 172.348 234.548 164.284 222.528C151.422 228.47 138.867 234.921 126.175 244.428C116.954 251.354 110.489 256.108 102.969 261.268C97.5927 264.969 92.8631 269.281 87.657 271.692C80.3414 275.121 70.6099 276.378 63.0221 276.751C55.6724 277.124 48.7651 274.069 41.9258 272.778C46.145 286.699 53.3246 301.163 57.6119 315.084C79.831 323.81 105.657 313.352 132.47 297.666C130.564 294.406 119.131 287.48 122.262 284.255L122.33 284.322ZM63.8047 289.042C66.0844 296.749 68.6704 305.543 71.9029 313.556C72.1071 314.099 71.6647 314.54 71.9029 315.084C70.9842 315.729 69.9974 316.578 69.2489 316.408C64.4852 308.904 61.8311 298.82 59.1431 289.687C58.4966 287.548 56.5571 283.372 59.6535 282.217C63.0221 282.285 63.1241 286.733 63.8047 289.042Z" fill="#E7F2FC"/>
<path d="M130.018 344.795C137.503 360.074 150.637 372.568 161.423 380.955C158.803 371.38 150.875 366.389 144.002 359.225C139.17 354.2 135.189 348.632 130.052 344.795H130.018Z" fill="#E7F2FC"/>
<path d="M325.869 335.593C324.202 336 322.704 337.664 320.765 338.58C318.86 339.463 317.396 339.293 315.865 340.38C301.268 350.736 321.854 370.937 334.307 368.051C341.963 363.672 347.101 358.001 345.331 351.381C343.052 342.824 331.993 334.099 325.869 335.626V335.593Z" fill="#D9D9D9"/>
<path d="M218.927 360.582C221.275 357.798 222.636 350.736 221.581 348.054C218.28 339.464 206.337 332.198 202.118 333.794C199.702 334.744 195.79 339.667 194.394 342.621C193.067 345.439 192.319 352.23 192.761 354.403C194.292 361.805 200.315 364.351 204.33 365.37C209.094 366.558 213.823 366.524 218.893 360.515L218.927 360.582Z" fill="#D9D9D9"/>
<path d="M285.886 261.472C281.973 265.444 284.321 276.173 289.731 281.266C294.188 285.476 301.572 286.529 305.995 283.405C314.23 277.599 312.937 263.882 303.614 259.027C299.054 256.684 289.765 257.533 285.852 261.438L285.886 261.472Z" fill="#D9D9D9"/>
<path d="M249.454 402.954C253.333 409.643 263.473 411.205 269.155 409.371C271.503 408.624 273 407.164 275.076 405.331C282.187 399.083 281.472 390.833 272.49 383.669C261.976 375.248 242.139 390.425 249.454 402.954Z" fill="#D9D9D9"/>
<path d="M304.54 236.518C291.202 229.999 275.992 229.965 261.463 231.765C259.251 232.037 257.107 231.765 255.032 232.07C233.255 235.024 211.342 247.519 189.599 266.974C189.497 267.212 193.138 267.619 192.662 269.962C191.437 272.508 188.885 273.697 187.354 275.632C175.819 290.13 171.94 303.541 170.647 319.092C170.409 321.876 171.804 325.95 168.877 328.429C164.386 326.799 166.121 320.993 166.428 317.36C167.38 305.544 170.17 291.386 177.146 281.54C179.494 278.212 182.794 276.039 184.053 272.237C176.738 277.194 173.369 286.259 170 291.997C163.195 303.643 160.201 311.69 159.146 323.845C158.738 328.361 157.751 333.488 158.125 337.256C158.738 343.368 162.651 351.788 164.216 359.597C165.747 367.203 167.789 375.555 171.157 382.38C175.615 391.445 181.467 402.412 188.068 410.085C190.382 412.767 193.921 414.771 196.337 417.691C203.312 426.111 209.709 427.978 218.352 431.204C225.055 433.716 231.486 437.349 237.747 439.386C245.709 441.967 256.257 442.035 266.873 440.914C277.013 439.862 288.378 440.031 297.667 435.21C303.86 432.019 309.814 426.858 317.062 422.512C322.37 419.32 329.379 417.181 333.088 413.107C335.13 410.866 334.041 409.168 335.708 407.233C337.477 405.23 340.506 404.381 342.683 402.48C347.039 398.643 351.292 392.667 354.559 387.778C358.097 382.448 360.071 377.253 361.5 371.82C364.426 360.718 369.224 349.411 370.381 339.294C370.789 335.796 370.585 331.043 370.381 326.561C370.143 322.079 370.313 316.647 369.53 313.388C366.4 300.553 358.948 285.003 348.026 271.49C335.266 255.736 319.512 243.682 304.608 236.383L304.54 236.518ZM232.575 241.747C239.652 238.488 247.308 236.654 255.644 235.194C263.402 233.836 271.569 231.595 277.932 231.222C284.397 230.814 293.209 232.987 297.292 237.876C295.693 242.358 292.869 238.318 289.807 237.367C279.327 234.142 268.268 237.741 255.678 239.744C247.614 241.034 239.89 242.867 233.187 246.399C230.431 247.859 227.947 252.51 223.49 249.42C224.17 245.108 229.24 243.241 232.541 241.747H232.575ZM291.032 314.508C292.563 317.767 292.563 324.015 292.597 327.206C292.631 334.268 292.018 339.701 285.077 346.084C283.852 347.205 279.191 351.313 276.605 352.365C274.495 353.248 270.888 352.705 268.302 352.943C257.754 353.893 244.824 348.563 240.605 332.605C238.801 325.882 241.115 316.036 245.266 311.079C249.452 306.122 256.971 301.368 262.45 300.384C272.828 298.55 285.86 303.473 291.032 314.542V314.508ZM210.526 255.77C211.24 254.445 211.58 254.208 213.078 253.529C216.242 254.377 215.425 258.554 212.193 258.214C211.036 256.958 211.274 257.297 210.526 255.77ZM215.425 266.668C225.327 261.915 240.741 263.511 244.348 279.061C245.743 285.173 243.463 293.831 237.1 299.806C231.724 304.831 229.172 305.035 223.966 305.205C219.372 305.341 215.323 305.137 211.41 301.029C199.025 288.059 200.216 274.036 215.459 266.668H215.425ZM184.121 353.723C183.509 346.763 185.618 340.414 189.872 334.506C192.083 331.45 194.839 327.003 200.42 325.271C209.539 322.419 226.042 333.759 229.886 345.948C231.758 351.89 229.342 362.212 224.749 366.761C217.161 374.231 209.675 375.725 202.495 373.79C195.282 371.854 185.244 366.15 184.155 353.689L184.121 353.723ZM170.068 341.399C172.178 343.843 171.157 346.152 168.741 346.899C165.441 346.186 166.428 340.686 170.068 341.399ZM248.091 437.485C240.265 436.874 230.703 432.188 221.686 427.978C217.263 425.907 213.384 423.564 208.96 419.83C201.236 413.311 195.452 410.594 187.932 401.02C182.59 394.263 173.165 380.003 170.17 371.345C168.095 365.369 170.034 368.968 168.435 362.857C167.584 359.597 165.849 355.862 168.095 354.912C171.804 353.384 172.961 364.045 173.709 366.863C176.908 378.781 189.361 397.624 199.195 407.063C202.359 410.119 207.089 412.971 211.104 416.265C219.645 423.225 226.926 425.058 236.045 428.827C241.455 431.068 246.491 433.411 251.629 432.969C254.59 432.698 258.843 429.065 261.905 433.071C260.068 436.806 251.663 437.723 248.022 437.451L248.091 437.485ZM293.345 427.537C292.393 418.37 302.294 429.744 293.345 427.537V427.537ZM287.493 404.042C286.2 406.758 283.886 408.965 281.266 411.341C271.671 420.033 257.21 419.694 249.622 415.076C230.261 403.295 240.469 379.052 259.319 373.314C265.002 371.583 272.521 372.941 277.251 376.37C287.085 383.568 291.372 395.893 287.493 404.008V404.042ZM352.585 380.546C350.68 383.67 349.08 387.405 347.073 390.393C341.663 398.609 331.999 406.758 324.275 413.039C322.2 414.737 319.852 416.299 317.674 417.555C313.455 419.931 304.846 424.447 303.655 417.962C306.684 415.823 310.12 416.536 313.693 414.703C316.415 413.277 319.069 411.307 321.349 409.474C328.869 403.464 336.253 397.149 341.356 390.223C346.46 383.296 348.706 375.385 354.457 370.598C358.37 373.178 354.355 377.66 352.585 380.546ZM353.98 350.532C354.865 355.557 352.653 364.147 347.073 369.512C344.215 372.262 340.302 375.317 336.967 376.404C327.065 379.562 307.602 370.904 302.226 354.742C300.831 350.464 302.294 344.319 303.826 341.399C307.875 333.827 318.899 327.24 326.589 326.935C338.226 326.425 352.177 340.448 353.98 350.532ZM361.534 344.386C362.691 343.232 363.031 342.994 364.562 342.825C369.292 345.982 361.194 349.921 361.534 344.386ZM312.842 288.908C303.86 296.92 292.903 294.68 284.771 288.161C273.27 278.959 271.024 259.063 284.941 251.865C293.107 247.655 306.343 248.47 312.57 254.955C322.404 265.174 322.778 280.046 312.842 288.908ZM362.453 313.693C364.154 320.076 368.577 330.398 363.133 332.571C360.479 331.213 361.534 328.089 361.058 325.814C359.356 317.496 356.6 306.122 352.109 297.803C348.91 291.929 342.037 287.21 340.812 280.555C344.555 277.805 347.413 283.781 349.421 286.429C356.77 296.207 359.833 303.847 362.487 313.693H362.453Z" fill="#B9FF66"/>
<path d="M18.5156 236.35C18.5156 240.458 23.3473 243.989 26.3415 246.298C23.6195 243.548 21.2717 238.828 18.5156 236.35Z" fill="#E7F2FC"/>
<path d="M249.451 224.669C240.4 215.807 231.247 207.557 221.822 200.698C218.556 201.479 215.425 201.411 212.125 202.226C221.21 210.375 230.329 218.252 239.311 227.012C242.782 225.688 246.014 225.823 249.451 224.669Z" fill="#E7F2FC"/>
<path d="M16.0605 215.604C19.9735 222.496 27.9355 235.025 34.2302 239.914C34.1281 233.361 20.9602 221.953 16.0605 215.604Z" fill="#E7F2FC"/>
<path d="M313.113 229.659C313.93 232.647 316.652 234.039 318.796 234.956C316.924 233.088 315.121 230.915 313.113 229.659Z" fill="#E7F2FC"/>
<path d="M286.501 222.834C277.586 212.274 269.046 199.508 258.056 199.95C265.643 206.978 273.163 214.244 280.513 222.325C282.52 222.494 284.46 222.766 286.467 222.834H286.501Z" fill="#E7F2FC"/>
<path d="M303.994 226.739C294.637 217.81 285.654 207.148 275.311 203.481C281.469 209.491 287.492 216.112 293.31 223.819C296.917 224.464 300.455 225.517 303.994 226.739Z" fill="#E7F2FC"/>
<path d="M274.222 222.055C266.056 213.974 257.992 205.18 249.52 198.661C247.274 198.763 245.198 198.084 242.851 198.627C251.493 204.841 259.625 213.668 267.791 222.394C269.969 222.156 272.113 222.089 274.222 222.089V222.055Z" fill="#E7F2FC"/>
<path d="M261.939 222.768C251.05 212.888 241.353 196.862 228.117 199.442C237.066 207.251 246.083 214.687 254.827 223.549C257.209 223.311 259.489 223.549 261.939 222.768Z" fill="#E7F2FC"/>
<path d="M31.8849 197.675C27.938 193.533 24.3653 189.561 21.7113 185.758C21.0648 187.252 19.6017 189.764 20.2482 191.835C22.9702 200.459 35.5937 211.324 40.3913 215.297C45.5632 209.016 38.0096 204.058 31.8849 197.641V197.675Z" fill="#E7F2FC"/>
<path d="M48.0081 197.369C40.4884 189.492 33.1049 180.936 26.1977 169.969C24.4964 172.176 23.7478 177.167 23.2715 180.63C30.5189 189.865 37.9705 198.082 45.6603 205.11C46.2047 202.496 48.1442 200.119 48.0421 197.369H48.0081Z" fill="#E7F2FC"/>
<path d="M43.559 174.451C38.7274 168 34.3721 160.7 30.3571 155.913C29.7446 157.848 27.1247 161.447 28.1114 164.571C30.289 171.362 47.3699 190.613 51.2488 193.125C56.4547 186.98 49.3434 182.125 43.559 174.417V174.451Z" fill="#E7F2FC"/>
<path d="M55.91 181.31C56.5565 178.628 58.53 176.149 59.7889 173.569C51.6228 163.247 43.967 150.175 35.8009 139.989C34.8481 143.554 32.2282 146.78 32.2962 150.515C40.0881 161.108 47.4716 173.976 55.91 181.276V181.31Z" fill="#E7F2FC"/>
<path d="M62.7865 168.986C63.3309 167.085 65.1683 165.387 66.2231 163.588C60.9832 157.646 55.471 149.599 50.5373 142.163C47.7472 137.987 42.099 132.147 46.08 128.922C49.1082 129.125 49.7887 132.657 51.2859 135.033C56.2536 142.978 63.399 152.621 68.741 159.819C71.2249 157.272 73.3345 154.624 77.4175 152.383C69.4896 134.354 58.5333 115.748 59.5201 99.3828C51.0137 110.893 44.753 122.81 38.2881 134.728C46.5223 145.83 54.178 159.819 62.7525 168.986H62.7865Z" fill="#E7F2FC"/>
<path d="M37.976 220.018C31.1028 214.586 24.8081 206.267 18.4453 198.187C22.8346 205.181 30.3883 216.555 37.4316 222.938C37.0573 221.852 38.5204 221.105 37.976 220.018Z" fill="#E7F2FC"/>
<path d="M34.8093 230.304C34.9795 230.508 35.1496 230.678 35.3878 230.406C31.8151 222.224 23.1045 214.143 17.5583 205.858C16.2654 209.525 20.3484 212.683 22.9344 215.942C26.8814 220.899 31.1346 226.366 34.7753 230.27L34.8093 230.304Z" fill="#E7F2FC"/>
<path d="M293.104 456.26C291.539 456.939 288.715 456.736 286.231 457.381C283.611 458.06 281.195 459.52 279.017 460.267C274.798 461.693 268.98 460.437 264.42 460.538C253.838 460.742 247.373 460.946 238.424 456.871C234.715 455.208 229.816 450.862 225.29 454.121C227.808 457.992 233.252 459.69 237.539 461.557C246.522 465.462 254.008 465.224 263.536 465.224C267.687 465.224 272.348 465.563 276.295 465.224C280.242 464.85 283.305 462.576 287.014 461.489C292.118 459.995 298.651 460.844 301.781 455.479C302.291 454.665 302.155 453.714 301.407 452.695C298.412 451.1 295.554 455.276 293.138 456.294L293.104 456.26Z" fill="#191A23"/>
<path d="M389.157 316.918C386.707 317.936 389.498 326.424 389.77 328.224C392.356 347.577 386.673 367.304 375.887 384.042C372.655 389.067 369.865 394.194 367.143 398.133C366.496 399.083 363.298 401.63 364.625 403.395C366.19 405.501 366.939 404.414 369.388 402.173C373.437 398.54 376.364 391.682 379.63 386.555C388.885 372.023 392.628 359.936 394.703 343.672C395.078 340.685 394.976 334.403 394.295 329.684C394.023 327.918 393.308 315.152 389.123 316.884L389.157 316.918Z" fill="#191A23"/>
<path d="M229.784 463.729C225.122 466.445 233.969 470.723 235.602 471.47C239.719 473.372 242.611 474.798 246.15 474.968C247.069 475.171 247.443 473.915 247.987 473.202C247.783 472.761 247.273 472.251 247.613 471.912C243.734 469.603 238.29 468.211 234.207 465.766C232.744 464.883 231.349 462.778 229.75 463.695L229.784 463.729Z" fill="#191A23"/>
<path d="M341.355 390.256C336.251 397.182 328.867 403.497 321.348 409.507C319.068 411.306 316.414 413.31 313.692 414.736C310.153 416.569 306.717 415.856 303.654 417.995C304.845 424.514 313.454 419.998 317.673 417.588C319.85 416.331 322.198 414.77 324.274 413.072C331.998 406.791 341.627 398.608 347.071 390.425C349.078 387.404 350.678 383.669 352.583 380.579C354.352 377.693 358.367 373.245 354.455 370.631C348.704 375.418 346.459 383.329 341.355 390.256Z" fill="#191A23"/>
<path d="M293.343 427.538C292.39 418.371 302.292 429.745 293.343 427.538V427.538Z" fill="#191A23"/>
<path d="M251.662 433.035C246.524 433.476 241.488 431.134 236.078 428.893C226.959 425.124 219.678 423.291 211.137 416.33C207.088 413.037 202.392 410.185 199.228 407.129C189.428 397.69 176.975 378.846 173.742 366.929C172.994 364.077 171.803 353.45 168.128 354.978C165.882 355.928 167.583 359.629 168.468 362.922C170.067 369.068 168.128 365.435 170.203 371.411C173.164 380.069 182.623 394.329 187.965 401.085C195.485 410.66 201.269 413.342 208.993 419.895C213.417 423.63 217.296 425.973 221.719 428.044C230.736 432.254 240.297 436.94 248.124 437.551C251.764 437.822 260.169 436.94 262.006 433.171C258.944 429.131 254.691 432.797 251.73 433.069L251.662 433.035Z" fill="#191A23"/>
<path d="M326.619 326.969C318.929 327.274 307.939 333.861 303.856 341.432C302.291 344.352 300.827 350.498 302.257 354.776C307.633 370.971 327.095 379.595 336.997 376.438C340.297 375.385 344.21 372.296 347.102 369.545C352.682 364.181 354.894 355.557 354.009 350.566C352.206 340.448 338.256 326.459 326.619 326.969ZM345.367 351.381C347.136 358.035 341.998 363.672 334.343 368.052C321.923 370.937 301.304 350.736 315.901 340.38C317.432 339.293 318.861 339.463 320.8 338.58C322.74 337.698 324.237 336 325.904 335.593C332.029 334.099 343.087 342.791 345.367 351.347V351.381Z" fill="#191A23"/>
<path d="M277.247 376.403C272.551 372.974 264.997 371.616 259.315 373.348C240.431 379.12 230.257 403.328 249.618 415.11C257.206 419.727 271.667 420.067 281.262 411.375C283.882 408.998 286.195 406.791 287.488 404.075C291.367 395.926 287.08 383.601 277.247 376.437V376.403ZM275.103 405.365C273.028 407.199 271.53 408.625 269.183 409.406C263.5 411.239 253.361 409.643 249.482 402.988C242.2 390.494 262.037 375.283 272.517 383.703C281.5 390.901 282.214 399.118 275.103 405.365Z" fill="#191A23"/>
<path d="M361.533 344.419C361.193 349.988 369.257 346.015 364.561 342.857C363.064 343.027 362.69 343.265 361.533 344.419Z" fill="#191A23"/>
<path d="M340.847 280.59C342.072 287.245 348.946 291.964 352.144 297.838C356.669 306.157 359.425 317.565 361.093 325.849C361.569 328.124 360.514 331.214 363.168 332.606C368.612 330.433 364.189 320.111 362.488 313.728C359.868 303.882 356.806 296.208 349.422 286.464C347.414 283.816 344.556 277.84 340.813 280.59H340.847Z" fill="#191A23"/>
<path d="M128.724 375.723C126.274 372.463 123.994 368.525 121.34 364.96C119.333 362.243 117.087 357.286 113.072 357.354C110.894 360.851 117.155 366.657 119.775 370.12C133.284 388.115 146.077 405.092 161.355 416.67C164.554 419.08 174.319 428.689 174.285 422.136C172.856 419.114 167.242 415.549 162.852 412.086C150.671 402.545 138.83 389.134 128.758 375.723H128.724Z" fill="#191A23"/>
<path d="M245.296 311.046C241.111 316.003 238.832 325.849 240.635 332.572C244.854 348.563 257.784 353.86 268.332 352.909C270.918 352.672 274.524 353.215 276.634 352.332C279.186 351.28 283.847 347.171 285.106 346.051C292.048 339.668 292.66 334.235 292.626 327.173C292.626 323.982 292.626 317.734 291.061 314.475C285.889 303.44 272.857 298.483 262.479 300.316C257.001 301.301 249.482 306.054 245.296 311.012V311.046ZM273.402 334.167C268.23 337.121 265.406 341.399 261.05 338.513C257.92 336.442 256.048 331.587 254.041 327.513C255.062 319.941 266.086 315.629 271.394 320.79C275.137 324.423 274.831 329.991 273.402 334.201V334.167Z" fill="#191A23"/>
<path d="M224.74 366.827C229.333 362.278 231.749 351.956 229.877 346.014C226.033 333.825 209.564 322.485 200.411 325.337C194.865 327.069 192.075 331.516 189.863 334.572C185.61 340.48 183.501 346.829 184.113 353.789C185.202 366.25 195.273 371.954 202.453 373.89C209.632 375.825 217.118 374.365 224.706 366.861L224.74 366.827ZM192.79 354.469C192.347 352.262 193.062 345.471 194.423 342.687C195.852 339.733 199.731 334.776 202.147 333.859C206.332 332.229 218.275 339.529 221.609 348.119C222.63 350.802 221.303 357.864 218.955 360.648C213.885 366.658 209.156 366.692 204.392 365.503C200.343 364.485 194.355 361.938 192.824 354.536L192.79 354.469Z" fill="#191A23"/>
<path d="M312.601 254.988C306.34 248.503 293.138 247.689 284.972 251.899C271.021 259.097 273.301 278.993 284.802 288.194C292.934 294.713 303.89 296.954 312.873 288.941C322.808 280.08 322.468 265.208 312.601 254.988ZM306.034 283.407C301.61 286.531 294.193 285.444 289.769 281.268C284.359 276.175 281.977 265.446 285.924 261.473C289.803 257.569 299.126 256.72 303.686 259.063C313.009 263.884 314.302 277.601 306.068 283.441L306.034 283.407Z" fill="#191A23"/>
<path d="M312.332 198.626C310.222 197.2 307.16 192.752 304.336 195.91C306.173 201.173 312.06 203.549 316.279 206.639C329.788 216.485 343.772 227.384 355.273 242.731C357.451 245.651 359.118 250.099 362.385 250.133C362.623 249.963 362.861 249.827 363.099 249.657C363.405 249.216 363.644 248.741 363.678 248.265C362.521 243.75 355.001 234.718 350.476 229.727C338.362 216.35 324.616 206.911 312.366 198.66L312.332 198.626Z" fill="#191A23"/>
<path d="M123.925 386.623C120.625 389.271 126.988 395.247 129.063 397.895C135.562 396.775 126.716 387.981 125.184 386.283C124.742 386.521 124.232 386.996 123.891 386.657L123.925 386.623Z" fill="#191A23"/>
<path d="M170.068 341.398C166.428 340.685 165.441 346.185 168.741 346.898C171.157 346.151 172.178 343.842 170.068 341.398Z" fill="#191A23"/>
<path d="M223.928 305.236C229.134 305.066 231.72 304.862 237.062 299.837C243.425 293.862 245.704 285.204 244.309 279.092C240.703 263.508 225.289 261.946 215.387 266.699C200.11 274.033 198.953 288.09 211.338 301.06C215.251 305.168 219.3 305.372 223.894 305.236H223.928ZM211.032 281.91C215.149 274.169 228.045 270.061 232.945 275.12C237.742 280.111 236.347 290.568 230.461 294.642C227.194 296.883 223.86 295.457 220.321 296.985C215.762 294.337 211.713 286.562 211.032 281.91Z" fill="#191A23"/>
<path d="M342.031 209.968C342.337 213.906 347.373 215.638 349.721 218.965C356.424 217.199 345.74 205.655 342.031 209.968Z" fill="#191A23"/>
<path d="M233.222 246.433C239.925 242.902 247.649 241.035 255.713 239.778C268.303 237.809 279.362 234.176 289.842 237.402C292.904 238.352 295.728 242.359 297.327 237.911C293.244 233.022 284.432 230.849 277.967 231.256C271.604 231.664 263.437 233.905 255.679 235.229C247.343 236.689 239.687 238.522 232.61 241.782C229.343 243.275 224.239 245.143 223.559 249.455C227.982 252.511 230.5 247.893 233.256 246.433H233.222Z" fill="#191A23"/>
<path d="M213.078 253.527C211.581 254.206 211.241 254.444 210.526 255.768C211.275 257.296 211.037 256.957 212.194 258.213C215.426 258.586 216.209 254.376 213.078 253.527Z" fill="#191A23"/>
<path d="M8.03254 301.571C5.48062 297.157 5.41257 291.725 1.80585 289.518C-2.71955 293.015 2.35026 300.892 4.90218 305.238C6.46736 307.886 8.9172 311.417 11.333 314.609C19.7033 325.711 32.9393 339.598 43.0109 336.305C43.8955 335.863 42.7046 335.048 43.3511 334.539C40.3228 331.551 36.2057 331.789 32.4289 329.752C23.5142 324.964 13.919 311.757 8.03254 301.571Z" fill="#191A23"/>
<path d="M59.1076 289.686C61.7956 298.82 64.4496 308.904 69.2132 316.407C69.9958 316.577 70.9485 315.728 71.8672 315.083C71.629 314.54 72.0373 314.098 71.8672 313.555C68.6007 305.508 66.0488 296.715 63.7691 289.041C63.0886 286.733 62.9525 282.251 59.618 282.217C56.5216 283.405 58.4951 287.547 59.1076 289.686Z" fill="#191A23"/>
<path d="M202.218 183.992C189.697 188.236 175.61 193.329 162.884 201.104C159.822 202.972 156.657 205.552 153.493 207.521C151.519 208.744 146.143 210.102 147.845 213.429C150.941 216.451 158.427 208.947 162.85 206.265C187.553 191.394 215.523 183.924 238.354 182.328C239.409 182.6 239.647 180.155 239.239 179.171C233.829 177.677 227.398 178.831 221.239 179.714C215.216 180.597 208.275 181.955 202.218 184.026V183.992Z" fill="#191A23"/>
<path d="M3.02952 313.624C-1.08758 315.967 8.8479 329.412 13.1351 329.141C14.292 329.718 14.258 327.579 14.7684 327.035C10.5492 324.183 6.63623 311.587 3.02952 313.624Z" fill="#191A23"/>
<path d="M137.472 216.928C128.829 217.335 141.112 225.62 137.472 216.928V216.928Z" fill="#191A23"/>
<path d="M95.2441 152.995C96.8773 155.745 98.8508 158.902 101.165 160.159C102.696 159.412 102.355 159.649 103.614 158.495C99.7014 151.942 95.9926 142.401 92.0457 137.852C87.9966 141.009 92.2158 147.902 95.2781 152.995H95.2441Z" fill="#191A23"/>
<path d="M18.0702 142.4C20.2479 143.554 21.2006 142.23 21.677 140.94C25.1816 131.501 27.019 120.67 32.0888 109.907C36.1038 101.351 40.289 95.8846 46.2434 88.0415C47.6045 86.242 51.2792 83.356 49.5439 80.1984C45.9712 78.9761 44.4401 83.1523 42.8409 85.2913C40.8674 87.9057 38.2474 90.3503 36.2399 92.8288C28.5501 102.505 24.331 114.525 21.6429 125.186C20.1798 130.89 17.3897 136.696 18.1043 142.366L18.0702 142.4Z" fill="#191A23"/>
<path d="M19.1655 104.476C18.451 104.476 17.8385 104.035 17.158 103.797C14.47 105.902 15.0484 108.109 14.1978 111.402C13.6193 113.711 10.1147 122.81 15.5928 120.128C18.8933 118.532 19.5398 108.041 19.1655 104.442V104.476Z" fill="#191A23"/>
<path d="M311.032 210.203C299.667 202.021 289.119 198.592 277.414 195.4C271.255 193.736 265.165 192.174 259.108 191.054C240.768 187.591 219.331 190.816 200.481 196.385C193.471 198.456 186.972 201.885 179.419 205.144C172.409 208.166 165.638 212.682 158.254 216.009C142.058 223.241 126.848 233.97 111.094 245.582C102.996 251.558 93.9107 259.062 84.2813 263.849C81.1849 265.411 76.4552 266.26 72.5082 266.803C61.926 268.195 52.8751 268.772 44.3004 263.611C40.6596 254.885 41.2721 241.949 42.9054 234.004C44.5386 226.025 49.2342 217.096 53.6236 207.861C57.945 198.693 61.2455 189.085 64.9203 181.819C68.0848 175.572 73.3929 166.54 78.3947 161.956C81.6272 159.003 85.7784 158.052 86.7312 154.758C87.9561 150.548 81.0148 138.835 78.0545 133.164C70.943 119.481 69.3097 110.959 67.9827 99.7888C67.6084 96.8689 68.9354 91.1648 64.6822 88.2788C61.4497 86.0719 55.0527 90.9611 51.548 95.2052C47.9412 99.5172 45.1171 105.663 41.7825 111.537C38.55 117.173 34.8752 122.775 32.2551 128.207C26.7089 139.751 22.6938 150.888 19.087 162.636C15.5142 174.247 11.4311 185.757 9.7638 197.505C7.48404 213.599 3.87726 228.878 11.0908 244.971C10.5804 256.753 12.2137 271.454 15.9906 284.934C17.2836 289.517 18.9509 294.984 21.1966 299.228C29.431 314.846 40.0131 319.328 50.7995 322.35C55.7333 323.742 60.8032 325.813 65.2266 326.288C83.2265 328.19 102.417 324.013 120.621 313.997C119.839 319.803 118.614 325.643 118.818 331.517C119.022 336.508 120.723 346.422 122.765 350.734C126.168 357.796 132.156 364.621 136.784 371.242C141.411 377.829 146.822 383.634 151.721 388.592C156.757 393.685 161.521 399.117 166.761 403.836C171.831 408.42 177.99 412.189 182.447 417.078C186.462 421.458 188.538 424.717 192.281 427.705C201.264 434.869 209.6 436.669 219.57 440.709C225.456 443.086 231.139 446.651 235.8 448.009C248.322 451.676 264.008 450.386 277.55 448.586C282.62 447.941 287.996 447.907 292.148 446.787C299.123 444.919 308.106 438.978 315.524 433.919C327.127 426.008 341.486 420.949 345.671 410.831C357.104 400.203 366.053 389.305 369.489 376.267C372.892 363.365 378.03 351.311 379.017 338.715C379.357 334.301 378.88 329.446 378.608 324.726C378.37 319.905 378.676 314.88 377.996 310.364C377.587 307.716 375.954 305.509 375.24 302.589C374.559 299.941 374.899 297.157 373.981 294.78C367.822 278.822 355.164 259.231 342.54 242.866C332.469 229.794 321.342 217.707 311.066 210.305L311.032 210.203ZM38.3118 134.726C44.7768 122.809 51.0376 110.891 59.5442 99.3814C58.5574 115.747 69.5139 134.353 77.442 152.382C73.3589 154.623 71.2492 157.271 68.7653 159.817C63.3892 152.653 56.2777 143.011 51.3098 135.032C49.8127 132.655 49.1322 129.09 46.1038 128.92C42.1568 132.18 47.8051 137.986 50.5613 142.162C55.4951 149.598 61.0073 157.644 66.2474 163.586C65.1926 165.42 63.3551 167.083 62.8107 168.985C54.2361 159.817 46.5802 145.795 38.3458 134.726H38.3118ZM35.7939 139.989C43.9942 150.175 51.6161 163.247 59.7824 173.568C58.5234 176.149 56.5499 178.593 55.9034 181.31C47.4649 174.01 40.0812 161.142 32.2892 150.548C32.2211 146.814 34.8411 143.554 35.7939 140.023V139.989ZM28.1039 164.571C27.0832 161.447 29.7372 157.848 30.3497 155.913C34.3648 160.666 38.6861 168 43.5519 174.451C49.3363 182.124 56.4478 187.014 51.2418 193.159C47.3628 190.647 30.2816 171.395 28.1039 164.605V164.571ZM26.1645 169.969C33.1058 180.936 40.4895 189.492 47.9753 197.369C48.0774 200.119 46.1379 202.462 45.5934 205.111C37.9375 198.082 30.4858 189.866 23.2042 180.631C23.6805 177.167 24.4291 172.176 26.1304 169.969H26.1645ZM20.2099 191.869C19.5293 189.764 21.0265 187.251 21.673 185.791C24.3611 189.56 27.8998 193.533 31.8468 197.709C37.9375 204.126 45.5254 209.083 40.3534 215.364C35.5897 211.392 22.932 200.527 20.2099 191.903V191.869ZM18.4065 198.184C24.7694 206.265 31.0983 214.583 37.9375 220.016C38.482 221.136 37.0188 221.849 37.3931 222.936C30.3497 216.553 22.7959 205.178 18.4065 198.184ZM17.5558 205.891C23.1021 214.176 31.8128 222.223 35.3856 230.439C35.1134 230.711 34.9772 230.541 34.8071 230.337C31.1663 226.433 26.913 220.966 22.966 216.009C20.346 212.75 16.2968 209.558 17.5898 205.925L17.5558 205.891ZM16.0246 215.602C20.9244 221.951 34.0926 233.359 34.1946 239.912C27.8998 235.023 19.9376 222.494 16.0246 215.602ZM313.074 229.692C315.047 230.949 316.885 233.122 318.756 234.989C316.646 234.072 313.924 232.68 313.074 229.692ZM303.921 226.738C300.382 225.55 296.877 224.464 293.236 223.819C287.418 216.111 281.395 209.49 275.237 203.481C285.581 207.114 294.563 217.775 303.921 226.738ZM286.431 222.868C284.424 222.8 282.45 222.494 280.477 222.359C273.127 214.278 265.573 207.012 258.019 199.984C269.01 199.576 277.55 212.309 286.465 222.868H286.431ZM249.445 198.659C257.917 205.178 265.981 213.972 274.148 222.053C272.038 222.053 269.894 222.121 267.717 222.359C259.55 213.633 251.418 204.839 242.775 198.592C245.089 198.082 247.199 198.727 249.445 198.626V198.659ZM261.864 222.8C259.38 223.581 257.101 223.343 254.753 223.581C246.008 214.753 236.991 207.283 228.042 199.474C241.278 196.894 250.976 212.92 261.864 222.8ZM221.747 200.731C231.173 207.589 240.326 215.84 249.377 224.701C245.906 225.856 242.707 225.686 239.237 227.044C230.288 218.284 221.135 210.441 212.05 202.258C215.35 201.478 218.447 201.545 221.747 200.731ZM206.572 203.922C215.895 211.29 225.048 219.676 234.099 228.47C231.411 229.217 228.757 229.998 225.83 232.069C215.861 224.396 206.027 215.908 196.296 206.842C199.732 205.722 203.237 204.398 206.572 203.922ZM192.008 208.743C201.434 218.25 211.199 226.025 220.931 233.869C218.549 236.788 213.989 237.502 210.587 240.388C203.339 234.955 195.751 227.078 188.606 220.22C186.428 218.114 184.216 214.821 181.052 215.161C178.194 218.182 182.753 220.899 184.761 222.834C191.464 229.217 199.732 237.298 206.401 243.24C203.271 245.379 200.141 247.518 197.01 249.657C187.313 239.878 177.207 232.409 167.918 220.593C176.22 215.195 183.978 212.716 192.008 208.777V208.743ZM18.4405 236.347C21.1966 238.826 23.5444 243.545 26.2665 246.295C23.2722 243.986 18.4405 240.455 18.4405 236.347ZM38.516 306.697C28.8525 300.246 27.9678 286.054 24.7353 276.853C24.5652 276.038 25.2457 276.785 25.552 277.294C27.9338 286.733 33.4461 296.749 38.516 306.663V306.697ZM52.3987 313.556C49.4384 313.692 46.8184 312.13 44.0623 311.077C43.79 310.093 44.8789 309.414 44.2664 308.395C35.4196 292.301 29.9073 276.853 23.7486 261.235C28.2741 265.139 32.7996 269.01 37.7674 270.538C38.6181 284.119 48.2815 299.364 52.3987 313.556ZM57.5707 315.118C53.3174 301.197 46.1379 286.733 41.8846 272.812C48.6898 274.103 55.6312 277.124 62.9809 276.785C70.5687 276.411 80.2662 275.155 87.6159 271.726C92.7878 269.315 97.5515 265.003 102.928 261.302C110.447 256.142 116.912 251.388 126.134 244.462C138.825 234.955 151.381 228.538 164.243 222.562C172.307 234.548 183.774 242.255 193.233 252.237C189.116 254.682 187.755 257.669 183.842 260.148C177.683 252.271 168.905 246.295 160.806 237.671C158.765 235.498 155.022 230.27 152.776 231.933C149.85 234.106 155.362 238.758 157.438 240.999C165.23 249.249 173.77 255.259 181.188 263.034C178.84 266.395 174.825 267.686 170.98 270.504C166.421 264.596 159.649 259.367 153.252 252.033C151.551 250.098 149.237 246.363 147.128 247.552C143.249 249.725 153.525 259.469 155.941 261.914C160.398 266.429 164.787 269.96 168.802 272.507C167.714 275.019 165.536 277.328 162.337 279.467C159.105 275.664 154.035 273.186 149.952 269.587C145.869 265.954 143.011 259.91 137.668 259.095C135.389 263.985 142.704 268.365 146.243 271.59C150.632 275.597 154.988 278.992 158.527 282.082C155.294 284.221 151.959 286.869 148.897 288.159C145.426 284.73 141.411 280.927 137.668 276.955C134.062 273.152 130.557 268.365 126.1 267.516C122.765 270.809 127.393 272.812 129.57 274.816C134.436 279.23 139.982 286.665 144.814 290.4C142.398 292.064 139.948 293.727 137.498 295.391C134.436 296.24 125.861 280.656 122.289 284.356C119.158 287.582 130.591 294.508 132.496 297.768C105.684 313.42 79.8238 323.911 57.6387 315.186L57.5707 315.118ZM159.037 291.826C159.173 294.474 156.451 296.579 156.417 299.194C154.818 299.533 153.763 297.089 152.504 295.731C154.511 295.289 156.825 293.15 159.003 291.826H159.037ZM154.375 303.642C153.865 304.762 153.048 305.815 153.116 307.037C150.258 306.222 147.91 302.555 145.324 300.111C146.243 299.465 147.162 298.854 148.115 298.209C150.258 299.737 152.096 302.895 154.375 303.608V303.642ZM151.585 315.22C147.264 312.435 143.283 307.784 139.064 304.389C139.88 303.845 140.697 303.302 141.479 302.725C144.576 307.41 152.334 310.161 151.551 315.22H151.585ZM150.326 328.291C143.691 324.387 137.702 316.883 131.203 312.3C132.565 310.33 131.135 307.852 134.742 306.29C140.867 313.658 153.252 318.649 150.292 328.291H150.326ZM129.264 316.17C132.428 318.819 135.491 322.214 139.302 325.643C144.61 330.363 151.007 332.502 150.088 339.19C146.822 337.798 144.678 334.912 141.003 331.109C139.064 329.106 133.96 322.35 131.578 324.794C128.958 327.51 138.077 334.573 140.254 336.712C144.882 341.295 147.74 344.012 151.721 346.728C152.504 348.29 152.266 349.648 153.286 351.277C145.631 345.132 138.349 337.153 131.169 328.665C130.217 327.748 129.162 327.409 127.903 328.359C128.005 324.251 127.393 320.007 129.298 316.204L129.264 316.17ZM161.317 380.918C150.53 372.532 137.396 360.003 129.91 344.758C135.048 348.595 139.029 354.163 143.861 359.188C150.735 366.353 158.697 371.344 161.283 380.918H161.317ZM155.872 364.757C151.211 359.834 145.699 354.605 140.629 349.172C135.661 343.876 129.808 338.613 127.699 332.502C132.36 336.474 136.58 341.601 141.411 346.592C147.468 352.839 155.362 357.355 156.451 364.859C156.213 365.13 156.043 364.926 155.872 364.723V364.757ZM369.421 313.488C370.204 316.747 370.034 322.18 370.272 326.662C370.51 331.109 370.68 335.863 370.272 339.394C369.115 349.546 364.351 360.818 361.391 371.921C359.962 377.353 357.988 382.514 354.45 387.879C351.183 392.802 346.93 398.743 342.574 402.58C340.431 404.482 337.368 405.33 335.599 407.334C333.898 409.269 335.021 410.966 332.979 413.207C329.27 417.282 322.261 419.387 316.953 422.612C309.705 426.958 303.751 432.119 297.558 435.311C288.235 440.132 276.87 439.962 266.764 441.015C256.148 442.101 245.6 442.067 237.638 439.487C231.377 437.45 224.98 433.817 218.243 431.304C209.566 428.079 203.203 426.211 196.228 417.791C193.812 414.871 190.273 412.868 187.959 410.186C181.358 402.512 175.506 391.579 171.048 382.48C167.68 375.656 165.672 367.303 164.107 359.698C162.542 351.889 158.629 343.468 158.016 337.357C157.608 333.554 158.629 328.427 159.037 323.945C160.092 311.79 163.086 303.71 169.891 292.098C173.226 286.36 176.629 277.328 183.944 272.337C182.685 276.106 179.385 278.313 177.037 281.64C170.061 291.52 167.305 305.645 166.319 317.46C166.012 321.093 164.277 326.899 168.768 328.529C171.695 326.05 170.3 321.942 170.538 319.192C171.797 303.608 175.71 290.23 187.245 275.732C188.776 273.797 191.328 272.609 192.553 270.062C193.029 267.686 189.388 267.312 189.49 267.074C211.233 247.619 233.18 235.091 254.923 232.171C256.998 231.899 259.142 232.171 261.354 231.865C275.917 230.066 291.093 230.1 304.431 236.619C319.335 243.885 335.089 255.972 347.849 271.726C358.771 285.205 366.257 300.756 369.353 313.624L369.421 313.488Z" fill="#191A23"/>
</g>
<defs>
<clipPath id="clip0_1905_343">
<rect width="568" height="475" fill="white"/>
</clipPath>
</defs>
</svg>
