<svg width="359" height="396" viewBox="0 0 359 396" fill="none" xmlns="http://www.w3.org/2000/svg">
<path d="M169 163.5C215.644 163.5 257.858 167.471 288.398 173.887C303.673 177.095 316 180.91 324.497 185.13C328.746 187.24 332.011 189.439 334.208 191.694C336.403 193.948 337.5 196.222 337.5 198.5C337.5 200.778 336.403 203.052 334.208 205.306C332.011 207.561 328.746 209.76 324.497 211.87C316 216.09 303.673 219.905 288.398 223.113C257.858 229.529 215.644 233.5 169 233.5C122.356 233.5 80.1417 229.529 49.6016 223.113C34.3275 219.905 21.9997 216.09 13.5029 211.87C9.25392 209.76 5.98872 207.561 3.79199 205.306C1.59696 203.052 0.5 200.778 0.5 198.5C0.5 196.222 1.59696 193.948 3.79199 191.694C5.98872 189.439 9.25392 187.24 13.5029 185.13C21.9997 180.91 34.3275 177.095 49.6016 173.887C80.1417 167.471 122.356 163.5 169 163.5Z" stroke="white"/>
<path d="M169 188.5C215.644 188.5 257.858 192.471 288.398 198.887C303.673 202.095 316 205.91 324.497 210.13C328.746 212.24 332.011 214.439 334.208 216.694C336.403 218.948 337.5 221.222 337.5 223.5C337.5 225.778 336.403 228.052 334.208 230.306C332.011 232.561 328.746 234.76 324.497 236.87C316 241.09 303.673 244.905 288.398 248.113C257.858 254.529 215.644 258.5 169 258.5C122.356 258.5 80.1417 254.529 49.6016 248.113C34.3275 244.905 21.9997 241.09 13.5029 236.87C9.25392 234.76 5.98872 232.561 3.79199 230.306C1.59696 228.052 0.5 225.778 0.5 223.5C0.5 221.222 1.59696 218.948 3.79199 216.694C5.98872 214.439 9.25392 212.24 13.5029 210.13C21.9997 205.91 34.3275 202.095 49.6016 198.887C80.1417 192.471 122.356 188.5 169 188.5Z" stroke="white"/>
<path d="M169 213.5C215.644 213.5 257.858 217.471 288.398 223.887C303.673 227.095 316 230.91 324.497 235.13C328.746 237.24 332.011 239.439 334.208 241.694C336.403 243.948 337.5 246.222 337.5 248.5C337.5 250.778 336.403 253.052 334.208 255.306C332.011 257.561 328.746 259.76 324.497 261.87C316 266.09 303.673 269.905 288.398 273.113C257.858 279.529 215.644 283.5 169 283.5C122.356 283.5 80.1417 279.529 49.6016 273.113C34.3275 269.905 21.9997 266.09 13.5029 261.87C9.25392 259.76 5.98872 257.561 3.79199 255.306C1.59696 253.052 0.5 250.778 0.5 248.5C0.5 246.222 1.59696 243.948 3.79199 241.694C5.98872 239.439 9.25392 237.24 13.5029 235.13C21.9997 230.91 34.3275 227.095 49.6016 223.887C80.1417 217.471 122.356 213.5 169 213.5Z" stroke="white"/>
<path d="M252.343 66.6289L252.511 67.5342L253.179 66.9004L300.312 22.1758L272.341 80.8232L271.944 81.6543L272.857 81.5342L337.277 73.0547L280.177 104.061L279.367 104.5L280.177 104.939L337.277 135.944L272.857 127.466L271.944 127.346L272.341 128.177L300.312 186.823L253.179 142.1L252.511 141.466L252.343 142.371L240.5 206.259L228.657 142.371L228.489 141.466L227.821 142.1L180.688 186.823L208.659 128.177L209.056 127.346L208.143 127.466L143.722 135.944L200.823 104.939L201.633 104.5L200.823 104.061L143.722 73.0547L208.143 81.5342L209.056 81.6543L208.659 80.8232L180.688 22.1758L227.821 66.9004L228.489 67.5342L228.657 66.6289L240.5 2.74023L252.343 66.6289Z" stroke="white"/>
<path d="M294.324 222.244L294.494 222.674L294.936 222.538L340.046 208.722L316.538 249.628L316.309 250.028L316.689 250.289L355.616 276.943L308.979 284.068L308.522 284.139L308.557 284.6L311.987 331.652L277.339 299.633L277 299.319L276.661 299.633L242.012 331.652L245.443 284.6L245.478 284.139L245.021 284.068L198.383 276.943L237.311 250.289L237.691 250.028L237.462 249.628L213.953 208.722L259.064 222.538L259.506 222.674L259.676 222.244L277 178.36L294.324 222.244Z" fill="#D9D9D9" stroke="white"/>
<path d="M112.194 306.103L135.134 264L158.258 306.103L200.269 329.135L158.258 352.167L135.134 394.269L112.194 352.167L70 329.135L112.194 306.103Z" fill="#B9FF66" stroke="white" stroke-miterlimit="10"/>
<circle cx="152.5" cy="186.5" r="62" fill="#E7F2FC" stroke="white"/>
<path d="M132 153.5C134.47 153.5 136.841 155.515 138.624 159.081C140.392 162.617 141.5 167.538 141.5 173C141.5 178.462 140.392 183.383 138.624 186.919C136.841 190.485 134.47 192.5 132 192.5C129.53 192.5 127.159 190.485 125.376 186.919C123.608 183.383 122.5 178.462 122.5 173C122.5 167.538 123.608 162.617 125.376 159.081C127.159 155.515 129.53 153.5 132 153.5Z" fill="#191A23" stroke="white"/>
<path d="M173 153.5C175.47 153.5 177.841 155.515 179.624 159.081C181.392 162.617 182.5 167.538 182.5 173C182.5 178.462 181.392 183.383 179.624 186.919C177.841 190.485 175.47 192.5 173 192.5C170.53 192.5 168.159 190.485 166.376 186.919C164.608 183.383 163.5 178.462 163.5 173C163.5 167.538 164.608 162.617 166.376 159.081C168.159 155.515 170.53 153.5 173 153.5Z" fill="black" stroke="white"/>
</svg>
