<svg width="220" height="56" viewBox="0 0 220 56" fill="none" xmlns="http://www.w3.org/2000/svg">
<g clip-path="url(#clip0_330_1193)">
<g clip-path="url(#clip1_330_1193)">
<path d="M17.9986 15.5352L35.5997 10.3496L30.464 28.0006L35.5997 45.6017L17.9986 40.466L0.347656 45.6017L5.53325 28.0006L0.347656 10.3496L17.9986 15.5352Z" fill="#B9FF66"/>
</g>
<path d="M49 41.0899V14H56.8561L62.7771 38.3035H63.3963L69.3174 14H77.1735V41.0899H73.11V16.9412H72.4908L66.6084 41.0899H59.5651L53.6827 16.9412H53.0635V41.0899H49Z" fill="black"/>
<path d="M91.8803 41.6317C89.9711 41.6317 88.2683 41.2447 86.7719 40.4707C85.3014 39.6709 84.1404 38.5357 83.289 37.0651C82.4376 35.5945 82.0119 33.853 82.0119 31.8406V31.2601C82.0119 29.2477 82.4376 27.5191 83.289 26.0743C84.1404 24.6038 85.3014 23.4686 86.7719 22.6688C88.2683 21.869 89.9711 21.4691 91.8803 21.4691C93.7895 21.4691 95.4923 21.869 96.9887 22.6688C98.4851 23.4686 99.659 24.6038 100.51 26.0743C101.362 27.5191 101.787 29.2477 101.787 31.2601V31.8406C101.787 33.853 101.362 35.5945 100.51 37.0651C99.659 38.5357 98.4851 39.6709 96.9887 40.4707C95.4923 41.2447 93.7895 41.6317 91.8803 41.6317ZM91.8803 38.0713C93.6347 38.0713 95.0537 37.5166 96.1373 36.4072C97.2467 35.272 97.8014 33.7111 97.8014 31.7245V31.3762C97.8014 29.3896 97.2596 27.8416 96.176 26.7322C95.0924 25.5971 93.6605 25.0295 91.8803 25.0295C90.1517 25.0295 88.7327 25.5971 87.6233 26.7322C86.5397 27.8416 85.9979 29.3896 85.9979 31.3762V31.7245C85.9979 33.7111 86.5397 35.272 87.6233 36.4072C88.7327 37.5166 90.1517 38.0713 91.8803 38.0713Z" fill="black"/>
<path d="M115.69 41.6317C113.781 41.6317 112.078 41.2447 110.581 40.4707C109.111 39.6709 107.95 38.5357 107.098 37.0651C106.247 35.5945 105.821 33.853 105.821 31.8406V31.2601C105.821 29.2477 106.247 27.5191 107.098 26.0743C107.95 24.6038 109.111 23.4686 110.581 22.6688C112.078 21.869 113.781 21.4691 115.69 21.4691C117.599 21.4691 119.302 21.869 120.798 22.6688C122.295 23.4686 123.468 24.6038 124.32 26.0743C125.171 27.5191 125.597 29.2477 125.597 31.2601V31.8406C125.597 33.853 125.171 35.5945 124.32 37.0651C123.468 38.5357 122.295 39.6709 120.798 40.4707C119.302 41.2447 117.599 41.6317 115.69 41.6317ZM115.69 38.0713C117.444 38.0713 118.863 37.5166 119.947 36.4072C121.056 35.272 121.611 33.7111 121.611 31.7245V31.3762C121.611 29.3896 121.069 27.8416 119.985 26.7322C118.902 25.5971 117.47 25.0295 115.69 25.0295C113.961 25.0295 112.542 25.5971 111.433 26.7322C110.349 27.8416 109.807 29.3896 109.807 31.3762V31.7245C109.807 33.7111 110.349 35.272 111.433 36.4072C112.542 37.5166 113.961 38.0713 115.69 38.0713Z" fill="black"/>
<path d="M138.454 41.6317C136.881 41.6317 135.423 41.2447 134.081 40.4707C132.74 39.6967 131.656 38.5873 130.83 37.1425C130.031 35.6719 129.631 33.9046 129.631 31.8406V31.2601C129.631 29.2219 130.031 27.4675 130.83 25.9969C131.63 24.5264 132.701 23.4041 134.043 22.6301C135.384 21.8561 136.855 21.4691 138.454 21.4691C139.693 21.4691 140.725 21.6239 141.55 21.9335C142.402 22.2431 143.098 22.643 143.64 23.1332C144.182 23.5976 144.595 24.0878 144.879 24.6038H145.498V14H149.484V41.0899H145.575V38.3809H144.956C144.466 39.2065 143.718 39.9547 142.711 40.6255C141.731 41.2963 140.312 41.6317 138.454 41.6317ZM139.577 38.1487C141.305 38.1487 142.724 37.594 143.834 36.4846C144.969 35.3752 145.536 33.7885 145.536 31.7245V31.3762C145.536 29.338 144.982 27.7642 143.872 26.6548C142.763 25.5455 141.331 24.9908 139.577 24.9908C137.874 24.9908 136.455 25.5455 135.32 26.6548C134.21 27.7642 133.656 29.338 133.656 31.3762V31.7245C133.656 33.7885 134.21 35.3752 135.32 36.4846C136.455 37.594 137.874 38.1487 139.577 38.1487Z" fill="black"/>
<path d="M155.236 41.0899V14H171.954V17.7926H159.415V25.61H170.948V29.4025H159.415V41.0899H155.236Z" fill="black"/>
<path d="M176.138 41.0899V14H180.124V41.0899H176.138Z" fill="black"/>
<path d="M186.039 41.0899V22.0109H190.026V41.0899H186.039ZM188.052 19.418C187.278 19.418 186.62 19.1729 186.078 18.6827C185.562 18.1667 185.304 17.5088 185.304 16.709C185.304 15.9092 185.562 15.2642 186.078 14.774C186.62 14.258 187.278 14 188.052 14C188.852 14 189.51 14.258 190.026 14.774C190.542 15.2642 190.8 15.9092 190.8 16.709C190.8 17.5088 190.542 18.1667 190.026 18.6827C189.51 19.1729 188.852 19.418 188.052 19.418Z" fill="black"/>
<path d="M194.316 41.0899L201.591 31.4536L194.471 22.0109H199.153L204.146 28.8607H204.765L209.757 22.0109H214.478L207.319 31.4536L214.594 41.0899H209.834L204.765 34.0852H204.146L199.076 41.0899H194.316Z" fill="black"/>
</g>
<defs>
<clipPath id="clip0_330_1193">
<rect width="219.537" height="56" fill="white"/>
</clipPath>
<clipPath id="clip1_330_1193">
<rect width="36" height="36" fill="white" transform="translate(0 10)"/>
</clipPath>
</defs>
</svg>
